<svg width="964" height="851" viewBox="0 0 964 851" fill="none" xmlns="http://www.w3.org/2000/svg">
<g filter="url(#filter0_b_1_753)">
<mask id="path-1-outside-1_1_753" maskUnits="userSpaceOnUse" x="488.001" y="142.263" width="264" height="220" fill="black">
<rect fill="white" x="488.001" y="142.263" width="264" height="220"/>
<path d="M489.766 143.263C548.229 143.263 605.133 162.116 652.031 197.023C698.929 231.93 733.32 281.03 750.099 337.033L671.999 360.432C660.254 321.229 636.18 286.86 603.352 262.425C570.523 237.99 530.69 224.793 489.766 224.793V143.263Z"/>
</mask>
<path d="M489.766 143.263C548.229 143.263 605.133 162.116 652.031 197.023C698.929 231.93 733.32 281.03 750.099 337.033L671.999 360.432C660.254 321.229 636.18 286.86 603.352 262.425C570.523 237.99 530.69 224.793 489.766 224.793V143.263Z" fill="url(#paint0_radial_1_753)"/>
<path d="M489.766 143.263C548.229 143.263 605.133 162.116 652.031 197.023C698.929 231.93 733.32 281.03 750.099 337.033L671.999 360.432C660.254 321.229 636.18 286.86 603.352 262.425C570.523 237.99 530.69 224.793 489.766 224.793V143.263Z" stroke="white" stroke-opacity="0.04" stroke-width="2" mask="url(#path-1-outside-1_1_753)"/>
</g>
<g filter="url(#filter1_f_1_753)">
<mask id="path-2-inside-2_1_753" fill="white">
<path d="M489.766 143.263C548.229 143.263 605.133 162.116 652.031 197.023C698.929 231.93 733.32 281.03 750.099 337.033L671.999 360.432C660.254 321.229 636.18 286.86 603.352 262.425C570.523 237.99 530.69 224.793 489.766 224.793V143.263Z"/>
</mask>
<path d="M489.766 143.263C548.229 143.263 605.133 162.116 652.031 197.023C698.929 231.93 733.32 281.03 750.099 337.033L671.999 360.432C660.254 321.229 636.18 286.86 603.352 262.425C570.523 237.99 530.69 224.793 489.766 224.793V143.263Z" stroke="white" stroke-opacity="0.7" stroke-width="1.57545" mask="url(#path-2-inside-2_1_753)"/>
</g>
<path d="M613.667 248V246.776L618.797 241.826C619.253 241.394 619.589 241.016 619.805 240.692C620.033 240.356 620.183 240.05 620.255 239.774C620.339 239.486 620.381 239.21 620.381 238.946C620.381 238.298 620.153 237.788 619.697 237.416C619.241 237.044 618.575 236.858 617.699 236.858C617.027 236.858 616.421 236.972 615.881 237.2C615.341 237.416 614.873 237.758 614.477 238.226L613.253 237.164C613.733 236.552 614.375 236.084 615.179 235.76C615.995 235.424 616.889 235.256 617.861 235.256C618.737 235.256 619.499 235.4 620.147 235.688C620.795 235.964 621.293 236.366 621.641 236.894C622.001 237.422 622.181 238.046 622.181 238.766C622.181 239.174 622.127 239.576 622.019 239.972C621.911 240.368 621.707 240.788 621.407 241.232C621.107 241.676 620.675 242.174 620.111 242.726L615.539 247.136L615.107 246.434H622.721V248H613.667ZM629.511 248.144C628.527 248.144 627.645 247.892 626.865 247.388C626.097 246.884 625.485 246.152 625.029 245.192C624.585 244.232 624.363 243.068 624.363 241.7C624.363 240.332 624.585 239.168 625.029 238.208C625.485 237.248 626.097 236.516 626.865 236.012C627.645 235.508 628.527 235.256 629.511 235.256C630.483 235.256 631.359 235.508 632.139 236.012C632.919 236.516 633.531 237.248 633.975 238.208C634.419 239.168 634.641 240.332 634.641 241.7C634.641 243.068 634.419 244.232 633.975 245.192C633.531 246.152 632.919 246.884 632.139 247.388C631.359 247.892 630.483 248.144 629.511 248.144ZM629.511 246.542C630.171 246.542 630.747 246.362 631.239 246.002C631.743 245.642 632.133 245.102 632.409 244.382C632.697 243.662 632.841 242.768 632.841 241.7C632.841 240.632 632.697 239.738 632.409 239.018C632.133 238.298 631.743 237.758 631.239 237.398C630.747 237.038 630.171 236.858 629.511 236.858C628.851 236.858 628.269 237.038 627.765 237.398C627.261 237.758 626.865 238.298 626.577 239.018C626.301 239.738 626.163 240.632 626.163 241.7C626.163 242.768 626.301 243.662 626.577 244.382C626.865 245.102 627.261 245.642 627.765 246.002C628.269 246.362 628.851 246.542 629.511 246.542ZM638.277 248L646.881 235.4H648.267L639.663 248H638.277ZM639.285 242.168C638.709 242.168 638.199 242.024 637.755 241.736C637.311 241.448 636.963 241.046 636.711 240.53C636.471 240.014 636.351 239.414 636.351 238.73C636.351 238.046 636.471 237.446 636.711 236.93C636.963 236.414 637.311 236.012 637.755 235.724C638.199 235.436 638.709 235.292 639.285 235.292C639.873 235.292 640.383 235.436 640.815 235.724C641.259 236.012 641.601 236.414 641.841 236.93C642.081 237.446 642.201 238.046 642.201 238.73C642.201 239.414 642.081 240.014 641.841 240.53C641.601 241.046 641.259 241.448 640.815 241.736C640.383 242.024 639.873 242.168 639.285 242.168ZM639.285 241.142C639.837 241.142 640.269 240.932 640.581 240.512C640.893 240.08 641.049 239.486 641.049 238.73C641.049 237.974 640.893 237.386 640.581 236.966C640.269 236.534 639.837 236.318 639.285 236.318C638.745 236.318 638.313 236.534 637.989 236.966C637.677 237.386 637.521 237.974 637.521 238.73C637.521 239.474 637.677 240.062 637.989 240.494C638.313 240.926 638.745 241.142 639.285 241.142ZM647.259 248.108C646.683 248.108 646.173 247.964 645.729 247.676C645.285 247.388 644.943 246.986 644.703 246.47C644.463 245.954 644.343 245.354 644.343 244.67C644.343 243.986 644.463 243.386 644.703 242.87C644.943 242.354 645.285 241.952 645.729 241.664C646.173 241.376 646.683 241.232 647.259 241.232C647.847 241.232 648.357 241.376 648.789 241.664C649.233 241.952 649.575 242.354 649.815 242.87C650.067 243.386 650.193 243.986 650.193 244.67C650.193 245.354 650.067 245.954 649.815 246.47C649.575 246.986 649.233 247.388 648.789 247.676C648.357 247.964 647.847 248.108 647.259 248.108ZM647.259 247.082C647.799 247.082 648.225 246.872 648.537 246.452C648.861 246.02 649.023 245.426 649.023 244.67C649.023 243.926 648.861 243.338 648.537 242.906C648.225 242.474 647.799 242.258 647.259 242.258C646.719 242.258 646.287 242.474 645.963 242.906C645.651 243.326 645.495 243.914 645.495 244.67C645.495 245.426 645.651 246.02 645.963 246.452C646.287 246.872 646.719 247.082 647.259 247.082Z" fill="white"/>
<g filter="url(#filter2_b_1_753)">
<mask id="path-4-inside-3_1_753" fill="white">
<path d="M755.067 356.107C766.425 407.246 762.761 460.579 744.515 509.684C726.269 558.79 694.219 601.576 652.224 632.891L603.486 567.532C632.883 545.612 655.318 515.662 668.09 481.288C680.862 446.914 683.428 409.581 675.477 373.783L755.067 356.107Z"/>
</mask>
<path d="M755.067 356.107C766.425 407.246 762.761 460.579 744.515 509.684C726.269 558.79 694.219 601.576 652.224 632.891L603.486 567.532C632.883 545.612 655.318 515.662 668.09 481.288C680.862 446.914 683.428 409.581 675.477 373.783L755.067 356.107Z" fill="url(#paint1_radial_1_753)"/>
<path d="M755.067 356.107C766.425 407.246 762.761 460.579 744.515 509.684C726.269 558.79 694.219 601.576 652.224 632.891L603.486 567.532C632.883 545.612 655.318 515.662 668.09 481.288C680.862 446.914 683.428 409.581 675.477 373.783L755.067 356.107Z" stroke="white" stroke-opacity="0.04" stroke-width="2" mask="url(#path-4-inside-3_1_753)"/>
</g>
<path d="M685 502.137V500.913L690.13 495.963C690.586 495.531 690.922 495.153 691.138 494.829C691.366 494.493 691.516 494.187 691.588 493.911C691.672 493.623 691.714 493.347 691.714 493.083C691.714 492.435 691.486 491.925 691.03 491.553C690.574 491.181 689.908 490.995 689.032 490.995C688.36 490.995 687.754 491.109 687.214 491.337C686.674 491.553 686.206 491.895 685.81 492.363L684.586 491.301C685.066 490.689 685.708 490.221 686.512 489.897C687.328 489.561 688.222 489.393 689.194 489.393C690.07 489.393 690.832 489.537 691.48 489.825C692.128 490.101 692.626 490.503 692.974 491.031C693.334 491.559 693.514 492.183 693.514 492.903C693.514 493.311 693.46 493.713 693.352 494.109C693.244 494.505 693.04 494.925 692.74 495.369C692.44 495.813 692.008 496.311 691.444 496.863L686.872 501.273L686.44 500.571H694.054V502.137H685ZM700.844 502.281C699.86 502.281 698.978 502.029 698.198 501.525C697.43 501.021 696.818 500.289 696.362 499.329C695.918 498.369 695.696 497.205 695.696 495.837C695.696 494.469 695.918 493.305 696.362 492.345C696.818 491.385 697.43 490.653 698.198 490.149C698.978 489.645 699.86 489.393 700.844 489.393C701.816 489.393 702.692 489.645 703.472 490.149C704.252 490.653 704.864 491.385 705.308 492.345C705.752 493.305 705.974 494.469 705.974 495.837C705.974 497.205 705.752 498.369 705.308 499.329C704.864 500.289 704.252 501.021 703.472 501.525C702.692 502.029 701.816 502.281 700.844 502.281ZM700.844 500.679C701.504 500.679 702.08 500.499 702.572 500.139C703.076 499.779 703.466 499.239 703.742 498.519C704.03 497.799 704.174 496.905 704.174 495.837C704.174 494.769 704.03 493.875 703.742 493.155C703.466 492.435 703.076 491.895 702.572 491.535C702.08 491.175 701.504 490.995 700.844 490.995C700.184 490.995 699.602 491.175 699.098 491.535C698.594 491.895 698.198 492.435 697.91 493.155C697.634 493.875 697.496 494.769 697.496 495.837C697.496 496.905 697.634 497.799 697.91 498.519C698.198 499.239 698.594 499.779 699.098 500.139C699.602 500.499 700.184 500.679 700.844 500.679ZM709.61 502.137L718.214 489.537H719.6L710.996 502.137H709.61ZM710.618 496.305C710.042 496.305 709.532 496.161 709.088 495.873C708.644 495.585 708.296 495.183 708.044 494.667C707.804 494.151 707.684 493.551 707.684 492.867C707.684 492.183 707.804 491.583 708.044 491.067C708.296 490.551 708.644 490.149 709.088 489.861C709.532 489.573 710.042 489.429 710.618 489.429C711.206 489.429 711.716 489.573 712.148 489.861C712.592 490.149 712.934 490.551 713.174 491.067C713.414 491.583 713.534 492.183 713.534 492.867C713.534 493.551 713.414 494.151 713.174 494.667C712.934 495.183 712.592 495.585 712.148 495.873C711.716 496.161 711.206 496.305 710.618 496.305ZM710.618 495.279C711.17 495.279 711.602 495.069 711.914 494.649C712.226 494.217 712.382 493.623 712.382 492.867C712.382 492.111 712.226 491.523 711.914 491.103C711.602 490.671 711.17 490.455 710.618 490.455C710.078 490.455 709.646 490.671 709.322 491.103C709.01 491.523 708.854 492.111 708.854 492.867C708.854 493.611 709.01 494.199 709.322 494.631C709.646 495.063 710.078 495.279 710.618 495.279ZM718.592 502.245C718.016 502.245 717.506 502.101 717.062 501.813C716.618 501.525 716.276 501.123 716.036 500.607C715.796 500.091 715.676 499.491 715.676 498.807C715.676 498.123 715.796 497.523 716.036 497.007C716.276 496.491 716.618 496.089 717.062 495.801C717.506 495.513 718.016 495.369 718.592 495.369C719.18 495.369 719.69 495.513 720.122 495.801C720.566 496.089 720.908 496.491 721.148 497.007C721.4 497.523 721.526 498.123 721.526 498.807C721.526 499.491 721.4 500.091 721.148 500.607C720.908 501.123 720.566 501.525 720.122 501.813C719.69 502.101 719.18 502.245 718.592 502.245ZM718.592 501.219C719.132 501.219 719.558 501.009 719.87 500.589C720.194 500.157 720.356 499.563 720.356 498.807C720.356 498.063 720.194 497.475 719.87 497.043C719.558 496.611 719.132 496.395 718.592 496.395C718.052 496.395 717.62 496.611 717.296 497.043C716.984 497.463 716.828 498.051 716.828 498.807C716.828 499.563 716.984 500.157 717.296 500.589C717.62 501.009 718.052 501.219 718.592 501.219Z" fill="white"/>
<g filter="url(#filter3_b_1_753)">
<mask id="path-6-inside-4_1_753" fill="white">
<path d="M639.646 641.728C595.427 670.963 543.623 686.628 490.614 686.793L490.36 605.264C527.466 605.148 563.729 594.183 594.682 573.718L639.646 641.728Z"/>
</mask>
<path d="M639.646 641.728C595.427 670.963 543.623 686.628 490.614 686.793L490.36 605.264C527.466 605.148 563.729 594.183 594.682 573.718L639.646 641.728Z" fill="url(#paint2_radial_1_753)"/>
<path d="M639.646 641.728C595.427 670.963 543.623 686.628 490.614 686.793L490.36 605.264C527.466 605.148 563.729 594.183 594.682 573.718L639.646 641.728Z" stroke="white" stroke-opacity="0.04" stroke-width="2" mask="url(#path-6-inside-4_1_753)"/>
</g>
<path d="M545.532 638.413V626.533L546.306 627.379H542.688V625.813H547.314V638.413H545.532ZM555.398 638.557C554.414 638.557 553.532 638.305 552.752 637.801C551.984 637.297 551.372 636.565 550.916 635.605C550.472 634.645 550.25 633.481 550.25 632.113C550.25 630.745 550.472 629.581 550.916 628.621C551.372 627.661 551.984 626.929 552.752 626.425C553.532 625.921 554.414 625.669 555.398 625.669C556.37 625.669 557.246 625.921 558.026 626.425C558.806 626.929 559.418 627.661 559.862 628.621C560.306 629.581 560.528 630.745 560.528 632.113C560.528 633.481 560.306 634.645 559.862 635.605C559.418 636.565 558.806 637.297 558.026 637.801C557.246 638.305 556.37 638.557 555.398 638.557ZM555.398 636.955C556.058 636.955 556.634 636.775 557.126 636.415C557.63 636.055 558.02 635.515 558.296 634.795C558.584 634.075 558.728 633.181 558.728 632.113C558.728 631.045 558.584 630.151 558.296 629.431C558.02 628.711 557.63 628.171 557.126 627.811C556.634 627.451 556.058 627.271 555.398 627.271C554.738 627.271 554.156 627.451 553.652 627.811C553.148 628.171 552.752 628.711 552.464 629.431C552.188 630.151 552.05 631.045 552.05 632.113C552.05 633.181 552.188 634.075 552.464 634.795C552.752 635.515 553.148 636.055 553.652 636.415C554.156 636.775 554.738 636.955 555.398 636.955ZM564.164 638.413L572.768 625.813H574.154L565.55 638.413H564.164ZM565.172 632.581C564.596 632.581 564.086 632.437 563.642 632.149C563.198 631.861 562.85 631.459 562.598 630.943C562.358 630.427 562.238 629.827 562.238 629.143C562.238 628.459 562.358 627.859 562.598 627.343C562.85 626.827 563.198 626.425 563.642 626.137C564.086 625.849 564.596 625.705 565.172 625.705C565.76 625.705 566.27 625.849 566.702 626.137C567.146 626.425 567.488 626.827 567.728 627.343C567.968 627.859 568.088 628.459 568.088 629.143C568.088 629.827 567.968 630.427 567.728 630.943C567.488 631.459 567.146 631.861 566.702 632.149C566.27 632.437 565.76 632.581 565.172 632.581ZM565.172 631.555C565.724 631.555 566.156 631.345 566.468 630.925C566.78 630.493 566.936 629.899 566.936 629.143C566.936 628.387 566.78 627.799 566.468 627.379C566.156 626.947 565.724 626.731 565.172 626.731C564.632 626.731 564.2 626.947 563.876 627.379C563.564 627.799 563.408 628.387 563.408 629.143C563.408 629.887 563.564 630.475 563.876 630.907C564.2 631.339 564.632 631.555 565.172 631.555ZM573.146 638.521C572.57 638.521 572.06 638.377 571.616 638.089C571.172 637.801 570.83 637.399 570.59 636.883C570.35 636.367 570.23 635.767 570.23 635.083C570.23 634.399 570.35 633.799 570.59 633.283C570.83 632.767 571.172 632.365 571.616 632.077C572.06 631.789 572.57 631.645 573.146 631.645C573.734 631.645 574.244 631.789 574.676 632.077C575.12 632.365 575.462 632.767 575.702 633.283C575.954 633.799 576.08 634.399 576.08 635.083C576.08 635.767 575.954 636.367 575.702 636.883C575.462 637.399 575.12 637.801 574.676 638.089C574.244 638.377 573.734 638.521 573.146 638.521ZM573.146 637.495C573.686 637.495 574.112 637.285 574.424 636.865C574.748 636.433 574.91 635.839 574.91 635.083C574.91 634.339 574.748 633.751 574.424 633.319C574.112 632.887 573.686 632.671 573.146 632.671C572.606 632.671 572.174 632.887 571.85 633.319C571.538 633.739 571.382 634.327 571.382 635.083C571.382 635.839 571.538 636.433 571.85 636.865C572.174 637.285 572.606 637.495 573.146 637.495Z" fill="white"/>
<g filter="url(#filter4_b_1_753)">
<mask id="path-8-inside-5_1_753" fill="white">
<path d="M472.98 686.275C420.695 683.04 370.458 664.761 328.319 633.64C286.179 602.52 253.932 559.883 235.459 510.862L311.751 482.112C324.682 516.426 347.255 546.272 376.753 568.057C406.251 589.841 441.416 602.636 478.016 604.901L472.98 686.275Z"/>
</mask>
<path d="M472.98 686.275C420.695 683.04 370.458 664.761 328.319 633.64C286.179 602.52 253.932 559.883 235.459 510.862L311.751 482.112C324.682 516.426 347.255 546.272 376.753 568.057C406.251 589.841 441.416 602.636 478.016 604.901L472.98 686.275Z" fill="url(#paint3_radial_1_753)"/>
<path d="M472.98 686.275C420.695 683.04 370.458 664.761 328.319 633.64C286.179 602.52 253.932 559.883 235.459 510.862L311.751 482.112C324.682 516.426 347.255 546.272 376.753 568.057C406.251 589.841 441.416 602.636 478.016 604.901L472.98 686.275Z" stroke="white" stroke-opacity="0.04" stroke-width="2" mask="url(#path-8-inside-5_1_753)"/>
</g>
<path d="M331.312 599.814V598.59L336.442 593.64C336.898 593.208 337.234 592.83 337.45 592.506C337.678 592.17 337.828 591.864 337.9 591.588C337.984 591.3 338.026 591.024 338.026 590.76C338.026 590.112 337.798 589.602 337.342 589.23C336.886 588.858 336.22 588.672 335.344 588.672C334.672 588.672 334.066 588.786 333.526 589.014C332.986 589.23 332.518 589.572 332.122 590.04L330.898 588.978C331.378 588.366 332.02 587.898 332.824 587.574C333.64 587.238 334.534 587.07 335.506 587.07C336.382 587.07 337.144 587.214 337.792 587.502C338.44 587.778 338.938 588.18 339.286 588.708C339.646 589.236 339.826 589.86 339.826 590.58C339.826 590.988 339.772 591.39 339.664 591.786C339.556 592.182 339.352 592.602 339.052 593.046C338.752 593.49 338.32 593.988 337.756 594.54L333.184 598.95L332.752 598.248H340.366V599.814H331.312ZM347.156 599.958C346.172 599.958 345.29 599.706 344.51 599.202C343.742 598.698 343.13 597.966 342.674 597.006C342.23 596.046 342.008 594.882 342.008 593.514C342.008 592.146 342.23 590.982 342.674 590.022C343.13 589.062 343.742 588.33 344.51 587.826C345.29 587.322 346.172 587.07 347.156 587.07C348.128 587.07 349.004 587.322 349.784 587.826C350.564 588.33 351.176 589.062 351.62 590.022C352.064 590.982 352.286 592.146 352.286 593.514C352.286 594.882 352.064 596.046 351.62 597.006C351.176 597.966 350.564 598.698 349.784 599.202C349.004 599.706 348.128 599.958 347.156 599.958ZM347.156 598.356C347.816 598.356 348.392 598.176 348.884 597.816C349.388 597.456 349.778 596.916 350.054 596.196C350.342 595.476 350.486 594.582 350.486 593.514C350.486 592.446 350.342 591.552 350.054 590.832C349.778 590.112 349.388 589.572 348.884 589.212C348.392 588.852 347.816 588.672 347.156 588.672C346.496 588.672 345.914 588.852 345.41 589.212C344.906 589.572 344.51 590.112 344.222 590.832C343.946 591.552 343.808 592.446 343.808 593.514C343.808 594.582 343.946 595.476 344.222 596.196C344.51 596.916 344.906 597.456 345.41 597.816C345.914 598.176 346.496 598.356 347.156 598.356ZM355.922 599.814L364.526 587.214H365.912L357.308 599.814H355.922ZM356.93 593.982C356.354 593.982 355.844 593.838 355.4 593.55C354.956 593.262 354.608 592.86 354.356 592.344C354.116 591.828 353.996 591.228 353.996 590.544C353.996 589.86 354.116 589.26 354.356 588.744C354.608 588.228 354.956 587.826 355.4 587.538C355.844 587.25 356.354 587.106 356.93 587.106C357.518 587.106 358.028 587.25 358.46 587.538C358.904 587.826 359.246 588.228 359.486 588.744C359.726 589.26 359.846 589.86 359.846 590.544C359.846 591.228 359.726 591.828 359.486 592.344C359.246 592.86 358.904 593.262 358.46 593.55C358.028 593.838 357.518 593.982 356.93 593.982ZM356.93 592.956C357.482 592.956 357.914 592.746 358.226 592.326C358.538 591.894 358.694 591.3 358.694 590.544C358.694 589.788 358.538 589.2 358.226 588.78C357.914 588.348 357.482 588.132 356.93 588.132C356.39 588.132 355.958 588.348 355.634 588.78C355.322 589.2 355.166 589.788 355.166 590.544C355.166 591.288 355.322 591.876 355.634 592.308C355.958 592.74 356.39 592.956 356.93 592.956ZM364.904 599.922C364.328 599.922 363.818 599.778 363.374 599.49C362.93 599.202 362.588 598.8 362.348 598.284C362.108 597.768 361.988 597.168 361.988 596.484C361.988 595.8 362.108 595.2 362.348 594.684C362.588 594.168 362.93 593.766 363.374 593.478C363.818 593.19 364.328 593.046 364.904 593.046C365.492 593.046 366.002 593.19 366.434 593.478C366.878 593.766 367.22 594.168 367.46 594.684C367.712 595.2 367.838 595.8 367.838 596.484C367.838 597.168 367.712 597.768 367.46 598.284C367.22 598.8 366.878 599.202 366.434 599.49C366.002 599.778 365.492 599.922 364.904 599.922ZM364.904 598.896C365.444 598.896 365.87 598.686 366.182 598.266C366.506 597.834 366.668 597.24 366.668 596.484C366.668 595.74 366.506 595.152 366.182 594.72C365.87 594.288 365.444 594.072 364.904 594.072C364.364 594.072 363.932 594.288 363.608 594.72C363.296 595.14 363.14 595.728 363.14 596.484C363.14 597.24 363.296 597.834 363.608 598.266C363.932 598.686 364.364 598.896 364.904 598.896Z" fill="white"/>
<g filter="url(#filter5_b_1_753)">
<mask id="path-10-inside-6_1_753" fill="white">
<path d="M230.472 496.41C222.789 471.932 218.612 446.488 218.063 420.838L299.574 419.095C299.958 437.05 302.882 454.861 308.26 471.996L230.472 496.41Z"/>
</mask>
<path d="M230.472 496.41C222.789 471.932 218.612 446.488 218.063 420.838L299.574 419.095C299.958 437.05 302.882 454.861 308.26 471.996L230.472 496.41Z" fill="url(#paint4_radial_1_753)"/>
<path d="M230.472 496.41C222.789 471.932 218.612 446.488 218.063 420.838L299.574 419.095C299.958 437.05 302.882 454.861 308.26 471.996L230.472 496.41Z" stroke="white" stroke-opacity="0.04" stroke-width="2" mask="url(#path-10-inside-6_1_753)"/>
</g>
<path d="M255.23 457.38C254.342 457.38 253.478 457.242 252.638 456.966C251.81 456.69 251.132 456.318 250.604 455.85L251.432 454.428C251.852 454.824 252.398 455.148 253.07 455.4C253.742 455.652 254.456 455.778 255.212 455.778C256.172 455.778 256.91 455.574 257.426 455.166C257.942 454.758 258.2 454.212 258.2 453.528C258.2 453.06 258.086 452.652 257.858 452.304C257.63 451.956 257.234 451.692 256.67 451.512C256.118 451.32 255.356 451.224 254.384 451.224H251.522L252.188 444.636H259.298V446.202H252.854L253.79 445.32L253.268 450.522L252.332 449.658H254.762C256.022 449.658 257.036 449.82 257.804 450.144C258.572 450.468 259.13 450.918 259.478 451.494C259.826 452.058 260 452.712 260 453.456C260 454.176 259.826 454.836 259.478 455.436C259.13 456.024 258.602 456.498 257.894 456.858C257.198 457.206 256.31 457.38 255.23 457.38ZM263.23 457.236L271.834 444.636H273.22L264.616 457.236H263.23ZM264.238 451.404C263.662 451.404 263.152 451.26 262.708 450.972C262.264 450.684 261.916 450.282 261.664 449.766C261.424 449.25 261.304 448.65 261.304 447.966C261.304 447.282 261.424 446.682 261.664 446.166C261.916 445.65 262.264 445.248 262.708 444.96C263.152 444.672 263.662 444.528 264.238 444.528C264.826 444.528 265.336 444.672 265.768 444.96C266.212 445.248 266.554 445.65 266.794 446.166C267.034 446.682 267.154 447.282 267.154 447.966C267.154 448.65 267.034 449.25 266.794 449.766C266.554 450.282 266.212 450.684 265.768 450.972C265.336 451.26 264.826 451.404 264.238 451.404ZM264.238 450.378C264.79 450.378 265.222 450.168 265.534 449.748C265.846 449.316 266.002 448.722 266.002 447.966C266.002 447.21 265.846 446.622 265.534 446.202C265.222 445.77 264.79 445.554 264.238 445.554C263.698 445.554 263.266 445.77 262.942 446.202C262.63 446.622 262.474 447.21 262.474 447.966C262.474 448.71 262.63 449.298 262.942 449.73C263.266 450.162 263.698 450.378 264.238 450.378ZM272.212 457.344C271.636 457.344 271.126 457.2 270.682 456.912C270.238 456.624 269.896 456.222 269.656 455.706C269.416 455.19 269.296 454.59 269.296 453.906C269.296 453.222 269.416 452.622 269.656 452.106C269.896 451.59 270.238 451.188 270.682 450.9C271.126 450.612 271.636 450.468 272.212 450.468C272.8 450.468 273.31 450.612 273.742 450.9C274.186 451.188 274.528 451.59 274.768 452.106C275.02 452.622 275.146 453.222 275.146 453.906C275.146 454.59 275.02 455.19 274.768 455.706C274.528 456.222 274.186 456.624 273.742 456.912C273.31 457.2 272.8 457.344 272.212 457.344ZM272.212 456.318C272.752 456.318 273.178 456.108 273.49 455.688C273.814 455.256 273.976 454.662 273.976 453.906C273.976 453.162 273.814 452.574 273.49 452.142C273.178 451.71 272.752 451.494 272.212 451.494C271.672 451.494 271.24 451.71 270.916 452.142C270.604 452.562 270.448 453.15 270.448 453.906C270.448 454.662 270.604 455.256 270.916 455.688C271.24 456.108 271.672 456.318 272.212 456.318Z" fill="white"/>
<g filter="url(#filter6_b_1_753)">
<mask id="path-12-inside-7_1_753" fill="white">
<path d="M218.235 403.748C219.3 378.114 223.99 352.76 232.164 328.441L309.445 354.417C303.723 371.441 300.44 389.188 299.695 407.132L218.235 403.748Z"/>
</mask>
<path d="M218.235 403.748C219.3 378.114 223.99 352.76 232.164 328.441L309.445 354.417C303.723 371.441 300.44 389.188 299.695 407.132L218.235 403.748Z" fill="url(#paint5_radial_1_753)"/>
<path d="M218.235 403.748C219.3 378.114 223.99 352.76 232.164 328.441L309.445 354.417C303.723 371.441 300.44 389.188 299.695 407.132L218.235 403.748Z" stroke="white" stroke-opacity="0.04" stroke-width="2" mask="url(#path-12-inside-7_1_753)"/>
</g>
<path d="M254.441 379.395C253.553 379.395 252.689 379.257 251.849 378.981C251.021 378.705 250.343 378.333 249.815 377.865L250.643 376.443C251.063 376.839 251.609 377.163 252.281 377.415C252.953 377.667 253.667 377.793 254.423 377.793C255.383 377.793 256.121 377.589 256.637 377.181C257.153 376.773 257.411 376.227 257.411 375.543C257.411 375.075 257.297 374.667 257.069 374.319C256.841 373.971 256.445 373.707 255.881 373.527C255.329 373.335 254.567 373.239 253.595 373.239H250.733L251.399 366.651H258.509V368.217H252.065L253.001 367.335L252.479 372.537L251.543 371.673H253.973C255.233 371.673 256.247 371.835 257.015 372.159C257.783 372.483 258.341 372.933 258.689 373.509C259.037 374.073 259.211 374.727 259.211 375.471C259.211 376.191 259.037 376.851 258.689 377.451C258.341 378.039 257.813 378.513 257.105 378.873C256.409 379.221 255.521 379.395 254.441 379.395ZM262.441 379.251L271.045 366.651H272.431L263.827 379.251H262.441ZM263.449 373.419C262.873 373.419 262.363 373.275 261.919 372.987C261.475 372.699 261.127 372.297 260.875 371.781C260.635 371.265 260.515 370.665 260.515 369.981C260.515 369.297 260.635 368.697 260.875 368.181C261.127 367.665 261.475 367.263 261.919 366.975C262.363 366.687 262.873 366.543 263.449 366.543C264.037 366.543 264.547 366.687 264.979 366.975C265.423 367.263 265.765 367.665 266.005 368.181C266.245 368.697 266.365 369.297 266.365 369.981C266.365 370.665 266.245 371.265 266.005 371.781C265.765 372.297 265.423 372.699 264.979 372.987C264.547 373.275 264.037 373.419 263.449 373.419ZM263.449 372.393C264.001 372.393 264.433 372.183 264.745 371.763C265.057 371.331 265.213 370.737 265.213 369.981C265.213 369.225 265.057 368.637 264.745 368.217C264.433 367.785 264.001 367.569 263.449 367.569C262.909 367.569 262.477 367.785 262.153 368.217C261.841 368.637 261.685 369.225 261.685 369.981C261.685 370.725 261.841 371.313 262.153 371.745C262.477 372.177 262.909 372.393 263.449 372.393ZM271.423 379.359C270.847 379.359 270.337 379.215 269.893 378.927C269.449 378.639 269.107 378.237 268.867 377.721C268.627 377.205 268.507 376.605 268.507 375.921C268.507 375.237 268.627 374.637 268.867 374.121C269.107 373.605 269.449 373.203 269.893 372.915C270.337 372.627 270.847 372.483 271.423 372.483C272.011 372.483 272.521 372.627 272.953 372.915C273.397 373.203 273.739 373.605 273.979 374.121C274.231 374.637 274.357 375.237 274.357 375.921C274.357 376.605 274.231 377.205 273.979 377.721C273.739 378.237 273.397 378.639 272.953 378.927C272.521 379.215 272.011 379.359 271.423 379.359ZM271.423 378.333C271.963 378.333 272.389 378.123 272.701 377.703C273.025 377.271 273.187 376.677 273.187 375.921C273.187 375.177 273.025 374.589 272.701 374.157C272.389 373.725 271.963 373.509 271.423 373.509C270.883 373.509 270.451 373.725 270.127 374.157C269.815 374.577 269.659 375.165 269.659 375.921C269.659 376.677 269.815 377.271 270.127 377.703C270.451 378.123 270.883 378.333 271.423 378.333Z" fill="white"/>
<g filter="url(#filter7_b_1_753)">
<mask id="path-14-inside-8_1_753" fill="white">
<path d="M220.566 310.475C240.714 258.538 275.444 213.531 320.575 180.872C365.705 148.214 419.313 129.295 474.946 126.392L479.462 212.975C440.52 215.006 402.994 228.25 371.402 251.111C339.811 273.972 315.5 305.476 301.396 341.832L220.566 310.475Z"/>
</mask>
<path d="M220.566 310.475C240.714 258.538 275.444 213.531 320.575 180.872C365.705 148.214 419.313 129.295 474.946 126.392L479.462 212.975C440.52 215.006 402.994 228.25 371.402 251.111C339.811 273.972 315.5 305.476 301.396 341.832L220.566 310.475Z" fill="url(#paint6_radial_1_753)"/>
<path d="M220.566 310.475C240.714 258.538 275.444 213.531 320.575 180.872C365.705 148.214 419.313 129.295 474.946 126.392L479.462 212.975C440.52 215.006 402.994 228.25 371.402 251.111C339.811 273.972 315.5 305.476 301.396 341.832L220.566 310.475Z" stroke="white" stroke-opacity="0.04" stroke-width="2" mask="url(#path-14-inside-8_1_753)"/>
</g>
<g filter="url(#filter8_b_1_753)">
<mask id="path-15-inside-9_1_753" fill="white">
<path d="M220.566 310.475C240.714 258.538 275.444 213.531 320.575 180.872C365.705 148.214 419.313 129.295 474.946 126.392L479.462 212.975C440.52 215.006 402.994 228.25 371.402 251.111C339.811 273.972 315.5 305.476 301.396 341.832L220.566 310.475Z"/>
</mask>
<path d="M220.566 310.475C240.714 258.538 275.444 213.531 320.575 180.872C365.705 148.214 419.313 129.295 474.946 126.392L479.462 212.975C440.52 215.006 402.994 228.25 371.402 251.111C339.811 273.972 315.5 305.476 301.396 341.832L220.566 310.475Z" fill="url(#paint7_radial_1_753)"/>
<path d="M220.566 310.475C240.714 258.538 275.444 213.531 320.575 180.872C365.705 148.214 419.313 129.295 474.946 126.392L479.462 212.975C440.52 215.006 402.994 228.25 371.402 251.111C339.811 273.972 315.5 305.476 301.396 341.832L220.566 310.475Z" stroke="white" stroke-opacity="0.04" stroke-width="2" mask="url(#path-15-inside-9_1_753)"/>
</g>
<path d="M321.667 237V235.776L326.797 230.826C327.253 230.394 327.589 230.016 327.805 229.692C328.033 229.356 328.183 229.05 328.255 228.774C328.339 228.486 328.381 228.21 328.381 227.946C328.381 227.298 328.153 226.788 327.697 226.416C327.241 226.044 326.575 225.858 325.699 225.858C325.027 225.858 324.421 225.972 323.881 226.2C323.341 226.416 322.873 226.758 322.477 227.226L321.253 226.164C321.733 225.552 322.375 225.084 323.179 224.76C323.995 224.424 324.889 224.256 325.861 224.256C326.737 224.256 327.499 224.4 328.147 224.688C328.795 224.964 329.293 225.366 329.641 225.894C330.001 226.422 330.181 227.046 330.181 227.766C330.181 228.174 330.127 228.576 330.019 228.972C329.911 229.368 329.707 229.788 329.407 230.232C329.107 230.676 328.675 231.174 328.111 231.726L323.539 236.136L323.107 235.434H330.721V237H321.667ZM337.511 237.144C336.527 237.144 335.645 236.892 334.865 236.388C334.097 235.884 333.485 235.152 333.029 234.192C332.585 233.232 332.363 232.068 332.363 230.7C332.363 229.332 332.585 228.168 333.029 227.208C333.485 226.248 334.097 225.516 334.865 225.012C335.645 224.508 336.527 224.256 337.511 224.256C338.483 224.256 339.359 224.508 340.139 225.012C340.919 225.516 341.531 226.248 341.975 227.208C342.419 228.168 342.641 229.332 342.641 230.7C342.641 232.068 342.419 233.232 341.975 234.192C341.531 235.152 340.919 235.884 340.139 236.388C339.359 236.892 338.483 237.144 337.511 237.144ZM337.511 235.542C338.171 235.542 338.747 235.362 339.239 235.002C339.743 234.642 340.133 234.102 340.409 233.382C340.697 232.662 340.841 231.768 340.841 230.7C340.841 229.632 340.697 228.738 340.409 228.018C340.133 227.298 339.743 226.758 339.239 226.398C338.747 226.038 338.171 225.858 337.511 225.858C336.851 225.858 336.269 226.038 335.765 226.398C335.261 226.758 334.865 227.298 334.577 228.018C334.301 228.738 334.163 229.632 334.163 230.7C334.163 231.768 334.301 232.662 334.577 233.382C334.865 234.102 335.261 234.642 335.765 235.002C336.269 235.362 336.851 235.542 337.511 235.542ZM346.277 237L354.881 224.4H356.267L347.663 237H346.277ZM347.285 231.168C346.709 231.168 346.199 231.024 345.755 230.736C345.311 230.448 344.963 230.046 344.711 229.53C344.471 229.014 344.351 228.414 344.351 227.73C344.351 227.046 344.471 226.446 344.711 225.93C344.963 225.414 345.311 225.012 345.755 224.724C346.199 224.436 346.709 224.292 347.285 224.292C347.873 224.292 348.383 224.436 348.815 224.724C349.259 225.012 349.601 225.414 349.841 225.93C350.081 226.446 350.201 227.046 350.201 227.73C350.201 228.414 350.081 229.014 349.841 229.53C349.601 230.046 349.259 230.448 348.815 230.736C348.383 231.024 347.873 231.168 347.285 231.168ZM347.285 230.142C347.837 230.142 348.269 229.932 348.581 229.512C348.893 229.08 349.049 228.486 349.049 227.73C349.049 226.974 348.893 226.386 348.581 225.966C348.269 225.534 347.837 225.318 347.285 225.318C346.745 225.318 346.313 225.534 345.989 225.966C345.677 226.386 345.521 226.974 345.521 227.73C345.521 228.474 345.677 229.062 345.989 229.494C346.313 229.926 346.745 230.142 347.285 230.142ZM355.259 237.108C354.683 237.108 354.173 236.964 353.729 236.676C353.285 236.388 352.943 235.986 352.703 235.47C352.463 234.954 352.343 234.354 352.343 233.67C352.343 232.986 352.463 232.386 352.703 231.87C352.943 231.354 353.285 230.952 353.729 230.664C354.173 230.376 354.683 230.232 355.259 230.232C355.847 230.232 356.357 230.376 356.789 230.664C357.233 230.952 357.575 231.354 357.815 231.87C358.067 232.386 358.193 232.986 358.193 233.67C358.193 234.354 358.067 234.954 357.815 235.47C357.575 235.986 357.233 236.388 356.789 236.676C356.357 236.964 355.847 237.108 355.259 237.108ZM355.259 236.082C355.799 236.082 356.225 235.872 356.537 235.452C356.861 235.02 357.023 234.426 357.023 233.67C357.023 232.926 356.861 232.338 356.537 231.906C356.225 231.474 355.799 231.258 355.259 231.258C354.719 231.258 354.287 231.474 353.963 231.906C353.651 232.326 353.495 232.914 353.495 233.67C353.495 234.426 353.651 235.02 353.963 235.452C354.287 235.872 354.719 236.082 355.259 236.082Z" fill="white"/>
<g filter="url(#filter9_f_1_753)">
<path d="M684 396.6C684 467.947 680.534 571 609.324 571C538.115 571 280 410.89 280 339.543C280 268.196 432.28 280.871 503.489 280.871C574.699 280.871 684 325.253 684 396.6Z" fill="#7C63FF" fill-opacity="0.3"/>
</g>
<path d="M410.836 429.465V385.037H414.712V429.465H410.836ZM412.301 424.266C409.718 424.266 407.244 423.903 404.881 423.179C402.518 422.422 400.643 421.461 399.257 420.295L401.384 415.522C402.707 416.562 404.345 417.428 406.299 418.121C408.253 418.815 410.253 419.161 412.301 419.161C414.034 419.161 415.437 418.972 416.508 418.594C417.579 418.216 418.367 417.712 418.871 417.082C419.375 416.42 419.627 415.679 419.627 414.86C419.627 413.852 419.265 413.048 418.54 412.45C417.816 411.82 416.87 411.331 415.704 410.985C414.57 410.606 413.294 410.26 411.876 409.945C410.49 409.63 409.088 409.267 407.67 408.858C406.283 408.417 405.007 407.865 403.841 407.203C402.707 406.51 401.777 405.597 401.053 404.462C400.328 403.328 399.966 401.878 399.966 400.114C399.966 398.318 400.438 396.679 401.384 395.199C402.36 393.686 403.826 392.489 405.779 391.606C407.764 390.693 410.269 390.236 413.294 390.236C415.279 390.236 417.248 390.488 419.202 390.992C421.156 391.496 422.857 392.221 424.306 393.166L422.369 397.94C420.888 397.058 419.36 396.412 417.784 396.002C416.209 395.561 414.696 395.34 413.247 395.34C411.545 395.34 410.159 395.545 409.088 395.955C408.048 396.364 407.276 396.9 406.772 397.562C406.299 398.223 406.063 398.98 406.063 399.83C406.063 400.839 406.409 401.658 407.103 402.288C407.827 402.887 408.757 403.359 409.891 403.706C411.057 404.053 412.349 404.399 413.767 404.746C415.185 405.061 416.587 405.423 417.973 405.833C419.391 406.242 420.667 406.778 421.801 407.44C422.967 408.101 423.897 408.999 424.59 410.134C425.315 411.268 425.677 412.702 425.677 414.435C425.677 416.199 425.189 417.838 424.212 419.35C423.267 420.831 421.801 422.028 419.816 422.942C417.831 423.824 415.326 424.266 412.301 424.266ZM442.498 424.266C439.915 424.266 437.441 423.903 435.078 423.179C432.715 422.422 430.84 421.461 429.454 420.295L431.581 415.522C432.904 416.562 434.542 417.428 436.496 418.121C438.45 418.815 440.45 419.161 442.498 419.161C444.231 419.161 445.634 418.972 446.705 418.594C447.776 418.216 448.564 417.712 449.068 417.082C449.572 416.42 449.824 415.679 449.824 414.86C449.824 413.852 449.462 413.048 448.737 412.45C448.013 411.82 447.067 411.331 445.901 410.985C444.767 410.606 443.491 410.26 442.073 409.945C440.687 409.63 439.285 409.267 437.867 408.858C436.48 408.417 435.204 407.865 434.038 407.203C432.904 406.51 431.974 405.597 431.25 404.462C430.525 403.328 430.163 401.878 430.163 400.114C430.163 398.318 430.635 396.679 431.581 395.199C432.557 393.686 434.023 392.489 435.976 391.606C437.961 390.693 440.466 390.236 443.491 390.236C445.476 390.236 447.445 390.488 449.399 390.992C451.353 391.496 453.054 392.221 454.503 393.166L452.566 397.94C451.085 397.058 449.556 396.412 447.981 396.002C446.406 395.561 444.893 395.34 443.444 395.34C441.742 395.34 440.356 395.545 439.285 395.955C438.245 396.364 437.473 396.9 436.969 397.562C436.496 398.223 436.26 398.98 436.26 399.83C436.26 400.839 436.606 401.658 437.299 402.288C438.024 402.887 438.954 403.359 440.088 403.706C441.254 404.053 442.546 404.399 443.964 404.746C445.382 405.061 446.784 405.423 448.17 405.833C449.588 406.242 450.864 406.778 451.998 407.44C453.164 408.101 454.094 408.999 454.787 410.134C455.512 411.268 455.874 412.702 455.874 414.435C455.874 416.199 455.386 417.838 454.409 419.35C453.464 420.831 451.998 422.028 450.013 422.942C448.028 423.824 445.523 424.266 442.498 424.266ZM462.439 423.793V390.708H467.496L481.959 414.86H479.312L493.539 390.708H498.596L498.643 423.793H492.83L492.782 399.83H494.011L481.912 420.012H479.171L466.882 399.83H468.3V423.793H462.439ZM514.764 423.793V395.907H503.799V390.708H531.873V395.907H520.908V423.793H514.764ZM546.233 423.793L531.77 390.708H538.434L551.337 420.626H547.509L560.554 390.708H566.698L552.282 423.793H546.233Z" fill="white"/>
<circle cx="489.766" cy="407.151" r="141.397" stroke="white" stroke-opacity="0.2" stroke-width="0.787726"/>
<circle cx="489.767" cy="415.029" r="318.635" stroke="white" stroke-opacity="0.2" stroke-width="0.787726"/>
<defs>
<filter id="filter0_b_1_753" x="395.815" y="49.3118" width="448.48" height="405.317" filterUnits="userSpaceOnUse" color-interpolation-filters="sRGB">
<feFlood flood-opacity="0" result="BackgroundImageFix"/>
<feGaussianBlur in="BackgroundImageFix" stdDeviation="46.4758"/>
<feComposite in2="SourceAlpha" operator="in" result="effect1_backgroundBlur_1_753"/>
<feBlend mode="normal" in="SourceGraphic" in2="effect1_backgroundBlur_1_753" result="shape"/>
</filter>
<filter id="filter1_f_1_753" x="396.815" y="50.3118" width="446.235" height="403.072" filterUnits="userSpaceOnUse" color-interpolation-filters="sRGB">
<feFlood flood-opacity="0" result="BackgroundImageFix"/>
<feBlend mode="normal" in="SourceGraphic" in2="BackgroundImageFix" result="shape"/>
<feGaussianBlur stdDeviation="46.4758" result="effect1_foregroundBlur_1_753"/>
</filter>
<filter id="filter2_b_1_753" x="510.535" y="263.155" width="343.948" height="462.688" filterUnits="userSpaceOnUse" color-interpolation-filters="sRGB">
<feFlood flood-opacity="0" result="BackgroundImageFix"/>
<feGaussianBlur in="BackgroundImageFix" stdDeviation="46.4758"/>
<feComposite in2="SourceAlpha" operator="in" result="effect1_backgroundBlur_1_753"/>
<feBlend mode="normal" in="SourceGraphic" in2="effect1_backgroundBlur_1_753" result="shape"/>
</filter>
<filter id="filter3_b_1_753" x="397.408" y="480.767" width="335.189" height="298.978" filterUnits="userSpaceOnUse" color-interpolation-filters="sRGB">
<feFlood flood-opacity="0" result="BackgroundImageFix"/>
<feGaussianBlur in="BackgroundImageFix" stdDeviation="46.4758"/>
<feComposite in2="SourceAlpha" operator="in" result="effect1_backgroundBlur_1_753"/>
<feBlend mode="normal" in="SourceGraphic" in2="effect1_backgroundBlur_1_753" result="shape"/>
</filter>
<filter id="filter4_b_1_753" x="142.507" y="389.161" width="428.461" height="390.066" filterUnits="userSpaceOnUse" color-interpolation-filters="sRGB">
<feFlood flood-opacity="0" result="BackgroundImageFix"/>
<feGaussianBlur in="BackgroundImageFix" stdDeviation="46.4758"/>
<feComposite in2="SourceAlpha" operator="in" result="effect1_backgroundBlur_1_753"/>
<feBlend mode="normal" in="SourceGraphic" in2="effect1_backgroundBlur_1_753" result="shape"/>
</filter>
<filter id="filter5_b_1_753" x="125.112" y="326.144" width="276.101" height="263.218" filterUnits="userSpaceOnUse" color-interpolation-filters="sRGB">
<feFlood flood-opacity="0" result="BackgroundImageFix"/>
<feGaussianBlur in="BackgroundImageFix" stdDeviation="46.4758"/>
<feComposite in2="SourceAlpha" operator="in" result="effect1_backgroundBlur_1_753"/>
<feBlend mode="normal" in="SourceGraphic" in2="effect1_backgroundBlur_1_753" result="shape"/>
</filter>
<filter id="filter6_b_1_753" x="125.284" y="235.489" width="277.112" height="264.594" filterUnits="userSpaceOnUse" color-interpolation-filters="sRGB">
<feFlood flood-opacity="0" result="BackgroundImageFix"/>
<feGaussianBlur in="BackgroundImageFix" stdDeviation="46.4758"/>
<feComposite in2="SourceAlpha" operator="in" result="effect1_backgroundBlur_1_753"/>
<feBlend mode="normal" in="SourceGraphic" in2="effect1_backgroundBlur_1_753" result="shape"/>
</filter>
<filter id="filter7_b_1_753" x="127.614" y="33.4407" width="444.8" height="401.343" filterUnits="userSpaceOnUse" color-interpolation-filters="sRGB">
<feFlood flood-opacity="0" result="BackgroundImageFix"/>
<feGaussianBlur in="BackgroundImageFix" stdDeviation="46.4758"/>
<feComposite in2="SourceAlpha" operator="in" result="effect1_backgroundBlur_1_753"/>
<feBlend mode="normal" in="SourceGraphic" in2="effect1_backgroundBlur_1_753" result="shape"/>
</filter>
<filter id="filter8_b_1_753" x="127.614" y="33.4407" width="444.8" height="401.343" filterUnits="userSpaceOnUse" color-interpolation-filters="sRGB">
<feFlood flood-opacity="0" result="BackgroundImageFix"/>
<feGaussianBlur in="BackgroundImageFix" stdDeviation="46.4758"/>
<feComposite in2="SourceAlpha" operator="in" result="effect1_backgroundBlur_1_753"/>
<feBlend mode="normal" in="SourceGraphic" in2="effect1_backgroundBlur_1_753" result="shape"/>
</filter>
<filter id="filter9_f_1_753" x="0" y="0" width="964" height="851" filterUnits="userSpaceOnUse" color-interpolation-filters="sRGB">
<feFlood flood-opacity="0" result="BackgroundImageFix"/>
<feBlend mode="normal" in="SourceGraphic" in2="BackgroundImageFix" result="shape"/>
<feGaussianBlur stdDeviation="140" result="effect1_foregroundBlur_1_753"/>
</filter>
<radialGradient id="paint0_radial_1_753" cx="0" cy="0" r="1" gradientUnits="userSpaceOnUse" gradientTransform="translate(490.001 415) rotate(90.0495) scale(271.794)">
<stop stop-color="#D70081"/>
<stop offset="1" stop-color="#D70081" stop-opacity="0"/>
</radialGradient>
<radialGradient id="paint1_radial_1_753" cx="0" cy="0" r="1" gradientUnits="userSpaceOnUse" gradientTransform="translate(489.766 415.029) rotate(90) scale(271.765)">
<stop stop-color="#5E00D7"/>
<stop offset="1" stop-color="#5E00D7" stop-opacity="0"/>
</radialGradient>
<radialGradient id="paint2_radial_1_753" cx="0" cy="0" r="1" gradientUnits="userSpaceOnUse" gradientTransform="translate(489.766 415.029) rotate(90) scale(271.765)">
<stop stop-color="#D700C1"/>
<stop offset="1" stop-color="#D700C1" stop-opacity="0"/>
</radialGradient>
<radialGradient id="paint3_radial_1_753" cx="0" cy="0" r="1" gradientUnits="userSpaceOnUse" gradientTransform="translate(489.766 415.029) rotate(90) scale(271.765)">
<stop stop-color="#002FD7"/>
<stop offset="1" stop-color="#002FD7" stop-opacity="0"/>
</radialGradient>
<radialGradient id="paint4_radial_1_753" cx="0" cy="0" r="1" gradientUnits="userSpaceOnUse" gradientTransform="translate(489.766 415.029) rotate(90) scale(271.765)">
<stop stop-color="#5E00D7"/>
<stop offset="1" stop-color="#5E00D7" stop-opacity="0"/>
</radialGradient>
<radialGradient id="paint5_radial_1_753" cx="0" cy="0" r="1" gradientUnits="userSpaceOnUse" gradientTransform="translate(489.766 415.029) rotate(90) scale(271.765)">
<stop stop-color="#002FD7"/>
<stop offset="1" stop-color="#002FD7" stop-opacity="0"/>
</radialGradient>
<radialGradient id="paint6_radial_1_753" cx="0" cy="0" r="1" gradientUnits="userSpaceOnUse" gradientTransform="translate(490.001 415) rotate(90) scale(289)">
<stop stop-color="#002FD7"/>
<stop offset="1" stop-color="#002FD7" stop-opacity="0"/>
</radialGradient>
<radialGradient id="paint7_radial_1_753" cx="0" cy="0" r="1" gradientUnits="userSpaceOnUse" gradientTransform="translate(490.001 415) rotate(90) scale(289)">
<stop stop-color="#002FD7"/>
<stop offset="1" stop-color="#002FD7" stop-opacity="0"/>
</radialGradient>
</defs>
</svg>
