<svg width="22" height="30" viewBox="0 0 22 30" fill="none" xmlns="http://www.w3.org/2000/svg">
<g clip-path="url(#clip0_244_225)">
<path d="M18.1351 17.2113L0 6.42368L0.923571 5.18683C1.3306 4.64571 5.06332 -0.109037 11.2481 0.00191106C15.5292 0.0784131 18.5318 2.42554 19.6235 3.43129C20.5698 4.30496 21.3713 5.31498 21.9996 6.42568L20.5772 7.18389C20.2852 7.34112 19.944 7.38951 19.6178 7.31995C19.2915 7.25039 19.0027 7.06768 18.8057 6.80619C18.4524 6.32898 18.0536 5.8851 17.6144 5.48042C16.7702 4.70218 14.4532 2.88616 11.1944 2.82808C7.98073 2.7704 5.61374 4.47027 4.33479 5.68669L17.1751 13.3237C17.5015 13.5178 17.7852 13.7724 18.0101 14.0729C18.235 14.3733 18.3966 14.7138 18.4858 15.0748C18.5749 15.4358 18.5898 15.8102 18.5296 16.1768C18.4695 16.5434 18.3354 16.8949 18.1351 17.2113Z" fill="white"/>
<path d="M3.86454 12.7887L21.9996 23.5762L21.076 24.8131C20.669 25.3542 16.9363 30.109 10.7515 29.998C6.47038 29.9215 3.46784 27.5744 2.37608 26.5686C1.4298 25.695 0.628335 24.6849 0 23.5742L1.424 22.8132C1.71561 22.6562 2.05638 22.6079 2.38219 22.6774C2.70799 22.7469 2.99636 22.9294 3.19304 23.1905C3.54647 23.6682 3.94563 24.1125 4.38521 24.5175C5.22944 25.2957 7.54643 27.1118 10.8052 27.1698C14.0189 27.2275 16.3859 25.5276 17.6648 24.3112L4.82448 16.6763C4.49809 16.4821 4.21436 16.2275 3.98948 15.9271C3.7646 15.6266 3.60298 15.2862 3.51384 14.9252C3.4247 14.5642 3.40979 14.1897 3.46996 13.8231C3.53014 13.4565 3.66421 13.105 3.86454 12.7887Z" fill="white"/>
</g>
<defs>
<clipPath id="clip0_244_225">
<rect width="22" height="30" fill="white"/>
</clipPath>
</defs>
</svg>
