<svg width="543" height="109" viewBox="0 0 543 109" fill="none" xmlns="http://www.w3.org/2000/svg">
<g filter="url(#filter0_f_1_883)">
<ellipse cx="54.5" cy="54.3396" rx="14.5" ry="13.7063" fill="#0038FF"/>
</g>
<path d="M57.5 54.8122C57.5 56.5156 56.0137 58.0386 54 58.0386C51.9863 58.0386 50.5 56.5156 50.5 54.8122C50.5 53.1088 51.9863 51.5859 54 51.5859C56.0137 51.5859 57.5 53.1088 57.5 54.8122Z" stroke="#0038FF" stroke-width="3"/>
<g filter="url(#filter1_f_1_883)">
<path d="M57.5 54.8122C57.5 56.5156 56.0137 58.0386 54 58.0386C51.9863 58.0386 50.5 56.5156 50.5 54.8122C50.5 53.1088 51.9863 51.5859 54 51.5859C56.0137 51.5859 57.5 53.1088 57.5 54.8122Z" stroke="#0038FF" stroke-width="3"/>
</g>
<g filter="url(#filter2_f_1_883)">
<path d="M57.5 54.8122C57.5 56.5156 56.0137 58.0386 54 58.0386C51.9863 58.0386 50.5 56.5156 50.5 54.8122C50.5 53.1088 51.9863 51.5859 54 51.5859C56.0137 51.5859 57.5 53.1088 57.5 54.8122Z" stroke="#0038FF" stroke-width="3"/>
</g>
<g filter="url(#filter3_f_1_883)">
<path d="M57.5 54.8122C57.5 56.5156 56.0137 58.0386 54 58.0386C51.9863 58.0386 50.5 56.5156 50.5 54.8122C50.5 53.1088 51.9863 51.5859 54 51.5859C56.0137 51.5859 57.5 53.1088 57.5 54.8122Z" stroke="#0038FF" stroke-width="3"/>
</g>
<g filter="url(#filter4_d_1_883)">
<ellipse cx="54" cy="54.8122" rx="2" ry="1.89052" fill="white"/>
</g>
<g filter="url(#filter5_f_1_883)">
<ellipse cx="488.5" cy="54.3396" rx="14.5" ry="13.7063" fill="#0038FF"/>
</g>
<path d="M491.5 54.8122C491.5 56.5156 490.014 58.0386 488 58.0386C485.986 58.0386 484.5 56.5156 484.5 54.8122C484.5 53.1088 485.986 51.5859 488 51.5859C490.014 51.5859 491.5 53.1088 491.5 54.8122Z" stroke="#0038FF" stroke-width="3"/>
<g filter="url(#filter6_f_1_883)">
<path d="M491.5 54.8122C491.5 56.5156 490.014 58.0386 488 58.0386C485.986 58.0386 484.5 56.5156 484.5 54.8122C484.5 53.1088 485.986 51.5859 488 51.5859C490.014 51.5859 491.5 53.1088 491.5 54.8122Z" stroke="#0038FF" stroke-width="3"/>
</g>
<g filter="url(#filter7_f_1_883)">
<path d="M491.5 54.8122C491.5 56.5156 490.014 58.0386 488 58.0386C485.986 58.0386 484.5 56.5156 484.5 54.8122C484.5 53.1088 485.986 51.5859 488 51.5859C490.014 51.5859 491.5 53.1088 491.5 54.8122Z" stroke="#0038FF" stroke-width="3"/>
</g>
<g filter="url(#filter8_f_1_883)">
<path d="M491.5 54.8122C491.5 56.5156 490.014 58.0386 488 58.0386C485.986 58.0386 484.5 56.5156 484.5 54.8122C484.5 53.1088 485.986 51.5859 488 51.5859C490.014 51.5859 491.5 53.1088 491.5 54.8122Z" stroke="#0038FF" stroke-width="3"/>
</g>
<g filter="url(#filter9_d_1_883)">
<ellipse cx="488" cy="54.8122" rx="2" ry="1.89052" fill="white"/>
</g>
<line x1="59" y1="55.2576" x2="489" y2="55.2576" stroke="white"/>
<line y1="-0.5" x2="6.81098" y2="-0.5" transform="matrix(0.726717 0.686937 -0.726717 0.686937 248.5 50.9021)" stroke="white"/>
<line y1="-0.5" x2="6.81111" y2="-0.5" transform="matrix(0.726717 -0.686937 0.726717 0.686937 248.949 59.8345)" stroke="white"/>
<line y1="-0.5" x2="6.81098" y2="-0.5" transform="matrix(0.726717 0.686937 -0.726717 0.686937 293.953 50.9014)" stroke="white"/>
<line y1="-0.5" x2="6.81111" y2="-0.5" transform="matrix(0.726717 -0.686937 0.726717 0.686937 294.402 59.8337)" stroke="white"/>
<line y1="-0.5" x2="6.81098" y2="-0.5" transform="matrix(0.726717 0.686937 -0.726717 0.686937 271.225 50.9014)" stroke="white"/>
<line y1="-0.5" x2="6.81111" y2="-0.5" transform="matrix(0.726717 -0.686937 0.726717 0.686937 271.674 59.8337)" stroke="white"/>
<defs>
<filter id="filter0_f_1_883" x="0" y="0.633301" width="109" height="107.413" filterUnits="userSpaceOnUse" color-interpolation-filters="sRGB">
<feFlood flood-opacity="0" result="BackgroundImageFix"/>
<feBlend mode="normal" in="SourceGraphic" in2="BackgroundImageFix" result="shape"/>
<feGaussianBlur stdDeviation="20" result="effect1_foregroundBlur_1_883"/>
</filter>
<filter id="filter1_f_1_883" x="29" y="30.0859" width="50" height="49.4526" filterUnits="userSpaceOnUse" color-interpolation-filters="sRGB">
<feFlood flood-opacity="0" result="BackgroundImageFix"/>
<feBlend mode="normal" in="SourceGraphic" in2="BackgroundImageFix" result="shape"/>
<feGaussianBlur stdDeviation="10" result="effect1_foregroundBlur_1_883"/>
</filter>
<filter id="filter2_f_1_883" x="34" y="35.0859" width="40" height="39.4526" filterUnits="userSpaceOnUse" color-interpolation-filters="sRGB">
<feFlood flood-opacity="0" result="BackgroundImageFix"/>
<feBlend mode="normal" in="SourceGraphic" in2="BackgroundImageFix" result="shape"/>
<feGaussianBlur stdDeviation="7.5" result="effect1_foregroundBlur_1_883"/>
</filter>
<filter id="filter3_f_1_883" x="39" y="40.0859" width="30" height="29.4526" filterUnits="userSpaceOnUse" color-interpolation-filters="sRGB">
<feFlood flood-opacity="0" result="BackgroundImageFix"/>
<feBlend mode="normal" in="SourceGraphic" in2="BackgroundImageFix" result="shape"/>
<feGaussianBlur stdDeviation="5" result="effect1_foregroundBlur_1_883"/>
</filter>
<filter id="filter4_d_1_883" x="46" y="46.9216" width="16" height="15.781" filterUnits="userSpaceOnUse" color-interpolation-filters="sRGB">
<feFlood flood-opacity="0" result="BackgroundImageFix"/>
<feColorMatrix in="SourceAlpha" type="matrix" values="0 0 0 0 0 0 0 0 0 0 0 0 0 0 0 0 0 0 127 0" result="hardAlpha"/>
<feMorphology radius="2" operator="dilate" in="SourceAlpha" result="effect1_dropShadow_1_883"/>
<feOffset/>
<feGaussianBlur stdDeviation="2"/>
<feComposite in2="hardAlpha" operator="out"/>
<feColorMatrix type="matrix" values="0 0 0 0 0.025 0 0 0 0 0.4735 0 0 0 0 1 0 0 0 0.25 0"/>
<feBlend mode="normal" in2="BackgroundImageFix" result="effect1_dropShadow_1_883"/>
<feBlend mode="normal" in="SourceGraphic" in2="effect1_dropShadow_1_883" result="shape"/>
</filter>
<filter id="filter5_f_1_883" x="434" y="0.633301" width="109" height="107.413" filterUnits="userSpaceOnUse" color-interpolation-filters="sRGB">
<feFlood flood-opacity="0" result="BackgroundImageFix"/>
<feBlend mode="normal" in="SourceGraphic" in2="BackgroundImageFix" result="shape"/>
<feGaussianBlur stdDeviation="20" result="effect1_foregroundBlur_1_883"/>
</filter>
<filter id="filter6_f_1_883" x="463" y="30.0859" width="50" height="49.4526" filterUnits="userSpaceOnUse" color-interpolation-filters="sRGB">
<feFlood flood-opacity="0" result="BackgroundImageFix"/>
<feBlend mode="normal" in="SourceGraphic" in2="BackgroundImageFix" result="shape"/>
<feGaussianBlur stdDeviation="10" result="effect1_foregroundBlur_1_883"/>
</filter>
<filter id="filter7_f_1_883" x="468" y="35.0859" width="40" height="39.4526" filterUnits="userSpaceOnUse" color-interpolation-filters="sRGB">
<feFlood flood-opacity="0" result="BackgroundImageFix"/>
<feBlend mode="normal" in="SourceGraphic" in2="BackgroundImageFix" result="shape"/>
<feGaussianBlur stdDeviation="7.5" result="effect1_foregroundBlur_1_883"/>
</filter>
<filter id="filter8_f_1_883" x="473" y="40.0859" width="30" height="29.4526" filterUnits="userSpaceOnUse" color-interpolation-filters="sRGB">
<feFlood flood-opacity="0" result="BackgroundImageFix"/>
<feBlend mode="normal" in="SourceGraphic" in2="BackgroundImageFix" result="shape"/>
<feGaussianBlur stdDeviation="5" result="effect1_foregroundBlur_1_883"/>
</filter>
<filter id="filter9_d_1_883" x="480" y="46.9216" width="16" height="15.781" filterUnits="userSpaceOnUse" color-interpolation-filters="sRGB">
<feFlood flood-opacity="0" result="BackgroundImageFix"/>
<feColorMatrix in="SourceAlpha" type="matrix" values="0 0 0 0 0 0 0 0 0 0 0 0 0 0 0 0 0 0 127 0" result="hardAlpha"/>
<feMorphology radius="2" operator="dilate" in="SourceAlpha" result="effect1_dropShadow_1_883"/>
<feOffset/>
<feGaussianBlur stdDeviation="2"/>
<feComposite in2="hardAlpha" operator="out"/>
<feColorMatrix type="matrix" values="0 0 0 0 0.025 0 0 0 0 0.4735 0 0 0 0 1 0 0 0 0.25 0"/>
<feBlend mode="normal" in2="BackgroundImageFix" result="effect1_dropShadow_1_883"/>
<feBlend mode="normal" in="SourceGraphic" in2="effect1_dropShadow_1_883" result="shape"/>
</filter>
</defs>
</svg>
