<svg width="250" height="490" viewBox="0 0 250 490" fill="none" xmlns="http://www.w3.org/2000/svg">
<line y1="-0.5" x2="6.81098" y2="-0.5" transform="matrix(-0.726717 0.686937 -0.726717 -0.686937 248.449 222.815)" stroke="white"/>
<line y1="-0.5" x2="6.81111" y2="-0.5" transform="matrix(0.726717 0.686937 -0.726717 0.686937 239 223.239)" stroke="white"/>
<line y1="-0.5" x2="6.81098" y2="-0.5" transform="matrix(-0.726717 0.686937 -0.726717 -0.686937 248.449 265.782)" stroke="white"/>
<line y1="-0.5" x2="6.81111" y2="-0.5" transform="matrix(0.726717 0.686937 -0.726717 0.686937 239 266.207)" stroke="white"/>
<line y1="-0.5" x2="6.81098" y2="-0.5" transform="matrix(-0.726717 0.686937 -0.726717 -0.686937 248.449 244.299)" stroke="white"/>
<line y1="-0.5" x2="6.81111" y2="-0.5" transform="matrix(0.726717 0.686937 -0.726717 0.686937 239 244.723)" stroke="white"/>
<path d="M54 55.031L204 55.031C226.091 55.031 244 72.9396 244 95.031L244 396.917C244 419.008 226.091 436.917 204 436.917H54" stroke="white"/>
<g filter="url(#filter0_f_1_855)">
<ellipse cx="54.5" cy="54.5583" rx="14.5" ry="13.7063" fill="#0038FF"/>
</g>
<path d="M58.5 55.031C58.5 56.7344 57.0137 58.2573 55 58.2573C52.9863 58.2573 51.5 56.7344 51.5 55.031C51.5 53.3276 52.9863 51.8047 55 51.8047C57.0137 51.8047 58.5 53.3276 58.5 55.031Z" stroke="#0038FF" stroke-width="3"/>
<g filter="url(#filter1_f_1_855)">
<path d="M58.5 55.031C58.5 56.7344 57.0137 58.2573 55 58.2573C52.9863 58.2573 51.5 56.7344 51.5 55.031C51.5 53.3276 52.9863 51.8047 55 51.8047C57.0137 51.8047 58.5 53.3276 58.5 55.031Z" stroke="#0038FF" stroke-width="3"/>
</g>
<g filter="url(#filter2_f_1_855)">
<path d="M58.5 55.031C58.5 56.7344 57.0137 58.2573 55 58.2573C52.9863 58.2573 51.5 56.7344 51.5 55.031C51.5 53.3276 52.9863 51.8047 55 51.8047C57.0137 51.8047 58.5 53.3276 58.5 55.031Z" stroke="#0038FF" stroke-width="3"/>
</g>
<g filter="url(#filter3_f_1_855)">
<path d="M58.5 55.031C58.5 56.7344 57.0137 58.2573 55 58.2573C52.9863 58.2573 51.5 56.7344 51.5 55.031C51.5 53.3276 52.9863 51.8047 55 51.8047C57.0137 51.8047 58.5 53.3276 58.5 55.031Z" stroke="#0038FF" stroke-width="3"/>
</g>
<g filter="url(#filter4_d_1_855)">
<ellipse cx="55" cy="55.0311" rx="2" ry="1.89052" fill="white"/>
</g>
<g filter="url(#filter5_f_1_855)">
<ellipse cx="55.5" cy="435.499" rx="14.5" ry="13.7063" fill="#0038FF"/>
</g>
<path d="M58.5 435.971C58.5 437.675 57.0137 439.198 55 439.198C52.9863 439.198 51.5 437.675 51.5 435.971C51.5 434.268 52.9863 432.745 55 432.745C57.0137 432.745 58.5 434.268 58.5 435.971Z" stroke="#0038FF" stroke-width="3"/>
<g filter="url(#filter6_f_1_855)">
<path d="M58.5 435.971C58.5 437.675 57.0137 439.198 55 439.198C52.9863 439.198 51.5 437.675 51.5 435.971C51.5 434.268 52.9863 432.745 55 432.745C57.0137 432.745 58.5 434.268 58.5 435.971Z" stroke="#0038FF" stroke-width="3"/>
</g>
<g filter="url(#filter7_f_1_855)">
<path d="M58.5 435.971C58.5 437.675 57.0137 439.198 55 439.198C52.9863 439.198 51.5 437.675 51.5 435.971C51.5 434.268 52.9863 432.745 55 432.745C57.0137 432.745 58.5 434.268 58.5 435.971Z" stroke="#0038FF" stroke-width="3"/>
</g>
<g filter="url(#filter8_f_1_855)">
<path d="M58.5 435.971C58.5 437.675 57.0137 439.198 55 439.198C52.9863 439.198 51.5 437.675 51.5 435.971C51.5 434.268 52.9863 432.745 55 432.745C57.0137 432.745 58.5 434.268 58.5 435.971Z" stroke="#0038FF" stroke-width="3"/>
</g>
<g filter="url(#filter9_d_1_855)">
<ellipse cx="55" cy="435.971" rx="2" ry="1.89052" fill="white"/>
</g>
<defs>
<filter id="filter0_f_1_855" x="0" y="0.852051" width="109" height="107.413" filterUnits="userSpaceOnUse" color-interpolation-filters="sRGB">
<feFlood flood-opacity="0" result="BackgroundImageFix"/>
<feBlend mode="normal" in="SourceGraphic" in2="BackgroundImageFix" result="shape"/>
<feGaussianBlur stdDeviation="20" result="effect1_foregroundBlur_1_855"/>
</filter>
<filter id="filter1_f_1_855" x="30" y="30.3047" width="50" height="49.4526" filterUnits="userSpaceOnUse" color-interpolation-filters="sRGB">
<feFlood flood-opacity="0" result="BackgroundImageFix"/>
<feBlend mode="normal" in="SourceGraphic" in2="BackgroundImageFix" result="shape"/>
<feGaussianBlur stdDeviation="10" result="effect1_foregroundBlur_1_855"/>
</filter>
<filter id="filter2_f_1_855" x="35" y="35.3047" width="40" height="39.4526" filterUnits="userSpaceOnUse" color-interpolation-filters="sRGB">
<feFlood flood-opacity="0" result="BackgroundImageFix"/>
<feBlend mode="normal" in="SourceGraphic" in2="BackgroundImageFix" result="shape"/>
<feGaussianBlur stdDeviation="7.5" result="effect1_foregroundBlur_1_855"/>
</filter>
<filter id="filter3_f_1_855" x="40" y="40.3047" width="30" height="29.4526" filterUnits="userSpaceOnUse" color-interpolation-filters="sRGB">
<feFlood flood-opacity="0" result="BackgroundImageFix"/>
<feBlend mode="normal" in="SourceGraphic" in2="BackgroundImageFix" result="shape"/>
<feGaussianBlur stdDeviation="5" result="effect1_foregroundBlur_1_855"/>
</filter>
<filter id="filter4_d_1_855" x="47" y="47.1406" width="16" height="15.781" filterUnits="userSpaceOnUse" color-interpolation-filters="sRGB">
<feFlood flood-opacity="0" result="BackgroundImageFix"/>
<feColorMatrix in="SourceAlpha" type="matrix" values="0 0 0 0 0 0 0 0 0 0 0 0 0 0 0 0 0 0 127 0" result="hardAlpha"/>
<feMorphology radius="2" operator="dilate" in="SourceAlpha" result="effect1_dropShadow_1_855"/>
<feOffset/>
<feGaussianBlur stdDeviation="2"/>
<feComposite in2="hardAlpha" operator="out"/>
<feColorMatrix type="matrix" values="0 0 0 0 0.025 0 0 0 0 0.4735 0 0 0 0 1 0 0 0 0.25 0"/>
<feBlend mode="normal" in2="BackgroundImageFix" result="effect1_dropShadow_1_855"/>
<feBlend mode="normal" in="SourceGraphic" in2="effect1_dropShadow_1_855" result="shape"/>
</filter>
<filter id="filter5_f_1_855" x="1" y="381.792" width="109" height="107.413" filterUnits="userSpaceOnUse" color-interpolation-filters="sRGB">
<feFlood flood-opacity="0" result="BackgroundImageFix"/>
<feBlend mode="normal" in="SourceGraphic" in2="BackgroundImageFix" result="shape"/>
<feGaussianBlur stdDeviation="20" result="effect1_foregroundBlur_1_855"/>
</filter>
<filter id="filter6_f_1_855" x="30" y="411.245" width="50" height="49.4526" filterUnits="userSpaceOnUse" color-interpolation-filters="sRGB">
<feFlood flood-opacity="0" result="BackgroundImageFix"/>
<feBlend mode="normal" in="SourceGraphic" in2="BackgroundImageFix" result="shape"/>
<feGaussianBlur stdDeviation="10" result="effect1_foregroundBlur_1_855"/>
</filter>
<filter id="filter7_f_1_855" x="35" y="416.245" width="40" height="39.4526" filterUnits="userSpaceOnUse" color-interpolation-filters="sRGB">
<feFlood flood-opacity="0" result="BackgroundImageFix"/>
<feBlend mode="normal" in="SourceGraphic" in2="BackgroundImageFix" result="shape"/>
<feGaussianBlur stdDeviation="7.5" result="effect1_foregroundBlur_1_855"/>
</filter>
<filter id="filter8_f_1_855" x="40" y="421.245" width="30" height="29.4526" filterUnits="userSpaceOnUse" color-interpolation-filters="sRGB">
<feFlood flood-opacity="0" result="BackgroundImageFix"/>
<feBlend mode="normal" in="SourceGraphic" in2="BackgroundImageFix" result="shape"/>
<feGaussianBlur stdDeviation="5" result="effect1_foregroundBlur_1_855"/>
</filter>
<filter id="filter9_d_1_855" x="47" y="428.081" width="16" height="15.781" filterUnits="userSpaceOnUse" color-interpolation-filters="sRGB">
<feFlood flood-opacity="0" result="BackgroundImageFix"/>
<feColorMatrix in="SourceAlpha" type="matrix" values="0 0 0 0 0 0 0 0 0 0 0 0 0 0 0 0 0 0 127 0" result="hardAlpha"/>
<feMorphology radius="2" operator="dilate" in="SourceAlpha" result="effect1_dropShadow_1_855"/>
<feOffset/>
<feGaussianBlur stdDeviation="2"/>
<feComposite in2="hardAlpha" operator="out"/>
<feColorMatrix type="matrix" values="0 0 0 0 0.025 0 0 0 0 0.4735 0 0 0 0 1 0 0 0 0.25 0"/>
<feBlend mode="normal" in2="BackgroundImageFix" result="effect1_dropShadow_1_855"/>
<feBlend mode="normal" in="SourceGraphic" in2="effect1_dropShadow_1_855" result="shape"/>
</filter>
</defs>
</svg>
