<svg width="280" height="274" viewBox="0 0 280 274" fill="none" xmlns="http://www.w3.org/2000/svg">
<g filter="url(#filter0_f_1_913)">
<ellipse cx="140" cy="136.882" rx="70" ry="66.1683" fill="#110BBC"/>
</g>
<path d="M176.791 133.72C176.791 125.998 174.29 118.462 169.625 112.124C164.96 105.787 158.354 100.951 150.695 98.2668C143.036 95.583 134.691 95.18 126.783 97.1119C118.874 99.0438 111.781 103.218 106.457 109.074L107.063 109.566C112.281 103.828 119.232 99.7373 126.983 97.844C134.733 95.9508 142.911 96.3457 150.417 98.9759C157.922 101.606 164.396 106.345 168.968 112.556C173.54 118.768 175.991 126.153 175.991 133.72H176.791Z" fill="white"/>
<path d="M176.791 133.72C176.791 125.998 174.29 118.462 169.625 112.124C164.96 105.787 158.354 100.951 150.695 98.2668C143.036 95.583 134.691 95.18 126.783 97.1119C118.874 99.0438 111.781 103.218 106.457 109.074L107.063 109.566C112.281 103.828 119.232 99.7373 126.983 97.844C134.733 95.9508 142.911 96.3457 150.417 98.9759C157.922 101.606 164.396 106.345 168.968 112.556C173.54 118.768 175.991 126.153 175.991 133.72H176.791Z" fill="white"/>
<path d="M173.31 149.147C176.643 142.098 177.613 134.253 176.089 126.668C174.566 119.082 170.622 112.119 164.788 106.715C158.954 101.311 151.51 97.7242 143.456 96.4377C135.401 95.1512 127.124 96.2264 119.735 99.5187L120.076 100.203C127.317 96.9763 135.429 95.9226 143.322 97.1833C151.215 98.4441 158.511 101.959 164.228 107.255C169.945 112.551 173.81 119.375 175.303 126.809C176.796 134.243 175.846 141.931 172.579 148.839L173.31 149.147Z" fill="white"/>
<path d="M172.36 154.835C176.486 148.625 178.712 141.455 178.791 134.122C178.869 126.789 176.798 119.578 172.806 113.29C168.813 107.002 163.057 101.882 156.174 98.4981C149.291 95.114 141.551 93.5982 133.812 94.1187L133.872 94.9107C141.456 94.4006 149.041 95.8861 155.786 99.2025C162.531 102.519 168.173 107.536 172.085 113.699C175.998 119.861 178.028 126.928 177.951 134.114C177.874 141.301 175.692 148.327 171.649 154.413L172.36 154.835Z" fill="white"/>
<path d="M101.086 121.426C99.1174 126.534 98.4014 131.998 98.9917 137.406C99.582 142.814 101.463 148.025 104.494 152.645C107.524 157.266 111.625 161.176 116.486 164.081C121.348 166.986 126.843 168.81 132.559 169.416L132.644 168.702C127.042 168.109 121.656 166.321 116.892 163.474C112.128 160.627 108.109 156.795 105.14 152.267C102.17 147.739 100.326 142.632 99.7477 137.332C99.1692 132.033 99.8709 126.678 101.8 121.672L101.086 121.426Z" fill="#C4C4C4"/>
<path d="M97.3542 127.397C96.1075 134.346 96.9401 141.486 99.7581 148.011C102.576 154.535 107.267 160.186 113.302 164.325C119.338 168.463 126.476 170.925 133.913 171.432C141.349 171.939 148.788 170.472 155.389 167.195L155.017 166.525C148.548 169.737 141.258 171.175 133.97 170.678C126.682 170.181 119.687 167.768 113.772 163.713C107.858 159.657 103.26 154.119 100.499 147.725C97.7371 141.33 96.9211 134.333 98.1429 127.524L97.3542 127.397Z" fill="white"/>
<path d="M138.6 142.63H123.8V137.03L133.4 120.23H141.4L131.8 137.03H138.6V131.03H145.8V137.03H148.6V142.63H145.8V148.23H138.6V142.63Z" fill="white"/>
<path d="M166.82 130.796C166.9 131.481 166.953 132.174 166.98 132.873L166.48 132.892C166.493 133.232 166.5 133.573 166.5 133.916C166.5 134.259 166.493 134.601 166.48 134.941L166.98 134.96C166.953 135.659 166.9 136.351 166.82 137.036L166.324 136.979C166.245 137.66 166.14 138.334 166.01 139L166.501 139.096C166.367 139.78 166.207 140.456 166.023 141.123L165.541 140.989C165.358 141.648 165.151 142.298 164.919 142.938L165.389 143.108C165.152 143.762 164.89 144.406 164.605 145.038L164.149 144.832C163.868 145.454 163.564 146.065 163.237 146.663L163.676 146.903C163.343 147.513 162.988 148.11 162.61 148.693L162.19 148.421C161.82 148.994 161.428 149.553 161.016 150.097L161.415 150.399C160.996 150.953 160.556 151.491 160.097 152.014L159.722 151.684C159.272 152.196 158.803 152.693 158.317 153.173L158.668 153.529C158.174 154.016 157.662 154.487 157.134 154.94L156.808 154.56C156.291 155.003 155.757 155.429 155.207 155.837L155.505 156.238C154.948 156.651 154.376 157.046 153.789 157.421L153.519 157C152.946 157.367 152.358 157.715 151.757 158.043L151.997 158.482C151.389 158.814 150.768 159.127 150.135 159.419L149.925 158.965C149.308 159.25 148.678 159.515 148.036 159.759L148.215 160.226C147.568 160.473 146.911 160.698 146.244 160.902L146.097 160.424C145.447 160.623 144.787 160.801 144.118 160.958L144.232 161.445C143.559 161.602 142.878 161.738 142.189 161.851L142.107 161.358C141.437 161.469 140.758 161.558 140.073 161.625L140.121 162.122C139.435 162.189 138.743 162.235 138.044 162.257L138.028 161.757C137.687 161.768 137.344 161.774 137 161.774C136.656 161.774 136.313 161.768 135.972 161.757L135.956 162.257C135.257 162.235 134.565 162.189 133.879 162.122L133.927 161.625C133.242 161.558 132.563 161.469 131.893 161.358L131.811 161.851C131.122 161.738 130.441 161.602 129.768 161.445L129.882 160.958C129.213 160.801 128.553 160.623 127.903 160.424L127.756 160.902C127.089 160.698 126.432 160.473 125.785 160.226L125.964 159.759C125.322 159.515 124.692 159.25 124.075 158.965L123.865 159.419C123.232 159.127 122.611 158.814 122.003 158.482L122.243 158.043C121.642 157.715 121.054 157.367 120.481 157L120.211 157.421C119.624 157.046 119.052 156.651 118.495 156.238L118.793 155.837C118.243 155.429 117.709 155.003 117.192 154.56L116.866 154.94C116.338 154.487 115.826 154.016 115.332 153.529L115.683 153.173C115.197 152.693 114.728 152.196 114.278 151.684L113.903 152.014C113.444 151.491 113.004 150.953 112.585 150.399L112.984 150.097C112.572 149.553 112.18 148.994 111.81 148.421L111.39 148.693C111.012 148.11 110.657 147.513 110.324 146.903L110.763 146.663C110.436 146.065 110.132 145.454 109.851 144.832L109.395 145.038C109.11 144.406 108.848 143.762 108.611 143.108L109.081 142.938C108.849 142.298 108.642 141.648 108.459 140.989L107.977 141.123C107.793 140.456 107.633 139.78 107.499 139.096L107.99 139C107.86 138.334 107.755 137.66 107.676 136.979L107.18 137.036C107.1 136.351 107.047 135.659 107.02 134.96L107.52 134.941C107.507 134.601 107.5 134.259 107.5 133.916C107.5 133.573 107.507 133.232 107.52 132.892L107.02 132.873C107.047 132.174 107.1 131.481 107.18 130.796L107.676 130.854C107.755 130.172 107.86 129.498 107.99 128.833L107.499 128.737C107.633 128.052 107.793 127.376 107.977 126.71L108.459 126.843C108.642 126.184 108.849 125.534 109.081 124.895L108.611 124.725C108.848 124.07 109.11 123.427 109.395 122.795L109.851 123C110.132 122.378 110.436 121.767 110.763 121.169L110.324 120.929C110.657 120.32 111.012 119.723 111.39 119.139L111.81 119.411C112.18 118.838 112.572 118.279 112.984 117.735L112.585 117.433C113.004 116.88 113.444 116.341 113.903 115.819L114.278 116.148C114.728 115.636 115.197 115.139 115.683 114.659L115.332 114.303C115.826 113.816 116.338 113.346 116.866 112.893L117.192 113.273C117.709 112.83 118.243 112.404 118.793 111.996L118.495 111.594C119.052 111.181 119.624 110.787 120.211 110.411L120.481 110.833C121.054 110.466 121.642 110.118 122.243 109.789L122.003 109.35C122.611 109.018 123.232 108.706 123.865 108.414L124.075 108.868C124.692 108.583 125.322 108.318 125.964 108.073L125.785 107.606C126.432 107.36 127.089 107.134 127.756 106.93L127.903 107.408C128.553 107.209 129.213 107.031 129.882 106.875L129.768 106.388C130.441 106.23 131.122 106.095 131.811 105.981L131.893 106.474C132.563 106.364 133.242 106.275 133.927 106.208L133.879 105.71C134.565 105.643 135.257 105.598 135.956 105.575L135.972 106.075C136.313 106.064 136.656 106.058 137 106.058C137.344 106.058 137.687 106.064 138.028 106.075L138.044 105.575C138.743 105.598 139.435 105.643 140.121 105.71L140.073 106.208C140.758 106.275 141.437 106.364 142.107 106.474L142.189 105.981C142.878 106.095 143.559 106.23 144.232 106.388L144.118 106.875C144.787 107.031 145.447 107.209 146.097 107.408L146.244 106.93C146.911 107.134 147.568 107.36 148.215 107.606L148.036 108.073C148.678 108.318 149.308 108.583 149.925 108.868L150.135 108.414C150.768 108.706 151.389 109.018 151.997 109.35L151.757 109.789C152.358 110.118 152.946 110.466 153.519 110.833L153.789 110.411C154.376 110.787 154.948 111.181 155.505 111.594L155.207 111.996C155.757 112.404 156.291 112.83 156.808 113.273L157.134 112.893C157.662 113.346 158.174 113.816 158.668 114.303L158.317 114.659C158.803 115.139 159.272 115.636 159.722 116.148L160.097 115.819C160.556 116.341 160.996 116.88 161.415 117.433L161.016 117.735C161.428 118.279 161.82 118.838 162.19 119.411L162.61 119.139C162.988 119.723 163.343 120.32 163.676 120.929L163.237 121.169C163.564 121.767 163.868 122.378 164.149 123L164.605 122.795C164.89 123.426 165.152 124.07 165.389 124.725L164.919 124.895C165.151 125.534 165.358 126.184 165.541 126.843L166.023 126.71C166.207 127.376 166.367 128.052 166.501 128.737L166.01 128.833C166.14 129.498 166.245 130.172 166.324 130.854L166.82 130.796Z" stroke="#0038FF" stroke-dasharray="2 2"/>
<path d="M140.539 157.084C146.203 156.272 151.4 153.646 155.26 149.646C159.121 145.646 161.411 140.514 161.748 135.108L161.498 135.094C161.165 140.446 158.898 145.527 155.076 149.487C151.253 153.447 146.108 156.047 140.501 156.85L140.539 157.084Z" fill="#3404CE"/>
<path d="M121.263 188.503C131.271 191.038 141.803 191.08 151.833 188.625C161.864 186.169 171.05 181.301 178.499 174.493C185.948 167.685 191.404 159.17 194.338 149.777C197.271 140.383 197.581 130.432 195.238 120.892L192.9 121.405C195.149 130.564 194.852 140.117 192.036 149.134C189.22 158.152 183.981 166.326 176.831 172.862C169.68 179.398 160.861 184.071 151.232 186.428C141.603 188.785 131.492 188.745 121.884 186.312L121.263 188.503Z" fill="white"/>
<path d="M186.765 102.331C182.202 95.8404 176.273 90.3082 169.348 86.0796C162.423 81.851 154.651 79.0168 146.515 77.7538C138.38 76.4909 130.057 76.8263 122.065 78.7391C114.072 80.6519 106.583 84.101 100.064 88.8714C93.5446 93.6417 88.1354 99.6308 84.1736 106.465C80.2118 113.299 77.7825 120.832 77.0372 128.593C76.292 136.354 77.2468 144.177 79.8422 151.574C82.4375 158.971 86.6176 165.783 92.1217 171.585L93.9085 170.07C88.6246 164.5 84.6116 157.961 82.1201 150.86C79.6286 143.759 78.712 136.249 79.4274 128.798C80.1428 121.347 82.475 114.116 86.2783 107.555C90.0816 100.994 95.2745 95.2448 101.533 90.6653C107.791 86.0858 114.981 82.7746 122.654 80.9383C130.326 79.102 138.316 78.78 146.126 79.9925C153.936 81.2049 161.398 83.9257 168.046 87.9852C174.694 92.0446 180.386 97.3556 184.766 103.587L186.765 102.331Z" fill="#C4C4C4"/>
<path d="M174.308 83.5433C166.689 78.4537 158.001 74.9739 148.833 73.3405C139.665 71.7071 130.233 71.9582 121.177 74.0769C112.121 76.1956 103.653 80.1321 96.3499 85.6191C89.0465 91.106 83.0781 98.0147 78.8504 105.876L82.327 107.546C86.301 100.157 91.9113 93.6628 98.7765 88.5051C105.642 83.3474 113.601 79.647 122.114 77.6554C130.626 75.6639 139.493 75.4278 148.11 76.9632C156.728 78.4986 164.895 81.7696 172.057 86.5538L174.308 83.5433Z" fill="white"/>
<path d="M169.292 186.93C179.06 181.599 187.192 173.958 192.889 164.757C198.587 155.556 201.653 145.112 201.788 134.452L197.888 134.408C197.762 144.429 194.879 154.246 189.524 162.895C184.168 171.544 176.524 178.727 167.342 183.737L169.292 186.93Z" fill="white"/>
<defs>
<filter id="filter0_f_1_913" x="0" y="0.713623" width="280" height="272.337" filterUnits="userSpaceOnUse" color-interpolation-filters="sRGB">
<feFlood flood-opacity="0" result="BackgroundImageFix"/>
<feBlend mode="normal" in="SourceGraphic" in2="BackgroundImageFix" result="shape"/>
<feGaussianBlur stdDeviation="35" result="effect1_foregroundBlur_1_913"/>
</filter>
</defs>
</svg>
