<svg width="280" height="273" viewBox="0 0 280 273" fill="none" xmlns="http://www.w3.org/2000/svg">
<g filter="url(#filter0_f_1_1019)">
<ellipse cx="140" cy="136.168" rx="70" ry="66.1683" fill="#110BBC"/>
</g>
<path d="M185 145.757C185 138.036 182.499 130.5 177.834 124.162C173.169 117.824 166.563 112.988 158.904 110.305C151.245 107.621 142.9 107.218 134.992 109.15C127.083 111.082 119.99 115.256 114.666 121.111L115.272 121.604C120.49 115.866 127.441 111.775 135.192 109.882C142.942 107.989 151.12 108.384 158.626 111.014C166.131 113.644 172.605 118.383 177.177 124.594C181.749 130.805 184.2 138.191 184.2 145.757H185Z" fill="white"/>
<path d="M185 145.757C185 138.036 182.499 130.5 177.834 124.162C173.169 117.824 166.563 112.988 158.904 110.305C151.245 107.621 142.9 107.218 134.992 109.15C127.083 111.082 119.99 115.256 114.666 121.111L115.272 121.604C120.49 115.866 127.441 111.775 135.192 109.882C142.942 107.989 151.12 108.384 158.626 111.014C166.131 113.644 172.605 118.383 177.177 124.594C181.749 130.805 184.2 138.191 184.2 145.757H185Z" fill="white"/>
<path d="M181.519 161.185C184.852 154.136 185.822 146.291 184.298 138.706C182.775 131.12 178.831 124.157 172.997 118.753C167.163 113.348 159.719 109.762 151.665 108.476C143.61 107.189 135.333 108.264 127.944 111.557L128.285 112.241C135.526 109.014 143.638 107.96 151.531 109.221C159.424 110.482 166.72 113.997 172.437 119.293C178.154 124.589 182.019 131.413 183.512 138.847C185.005 146.281 184.055 153.968 180.788 160.877L181.519 161.185Z" fill="white"/>
<path d="M180.567 166.873C184.693 160.662 186.919 153.493 186.998 146.16C187.077 138.827 185.005 131.616 181.013 125.328C177.02 119.04 171.264 113.92 164.381 110.536C157.498 107.152 149.758 105.636 142.019 106.157L142.079 106.949C149.663 106.438 157.248 107.924 163.993 111.24C170.738 114.557 176.38 119.574 180.292 125.737C184.205 131.899 186.235 138.965 186.158 146.152C186.081 153.338 183.899 160.364 179.856 166.451L180.567 166.873Z" fill="white"/>
<path d="M109.295 133.464C107.326 138.572 106.61 144.036 107.201 149.444C107.791 154.852 109.672 160.063 112.703 164.684C115.733 169.304 119.834 173.215 124.695 176.12C129.557 179.025 135.052 180.849 140.768 181.454L140.853 180.74C135.251 180.147 129.865 178.359 125.101 175.512C120.337 172.665 116.318 168.833 113.349 164.305C110.379 159.777 108.535 154.67 107.957 149.37C107.378 144.071 108.08 138.716 110.009 133.71L109.295 133.464Z" fill="#C4C4C4"/>
<path d="M105.563 139.435C104.316 146.384 105.149 153.523 107.967 160.048C110.785 166.573 115.476 172.224 121.511 176.362C127.547 180.501 134.685 182.963 142.122 183.47C149.558 183.977 156.997 182.509 163.598 179.233L163.226 178.563C156.757 181.774 149.467 183.213 142.179 182.716C134.891 182.219 127.896 179.806 121.981 175.75C116.067 171.695 111.469 166.157 108.708 159.763C105.946 153.368 105.13 146.371 106.352 139.562L105.563 139.435Z" fill="white"/>
<path d="M143.6 160.071V138.271L139 139.871L137 135.271L144.4 132.071H150.8V160.071H143.6Z" fill="white"/>
<path d="M174.82 142.637C174.9 143.323 174.953 144.015 174.98 144.714L174.48 144.733C174.493 145.073 174.5 145.415 174.5 145.758C174.5 146.1 174.493 146.442 174.48 146.782L174.98 146.801C174.953 147.5 174.9 148.192 174.82 148.878L174.324 148.82C174.245 149.501 174.14 150.175 174.01 150.841L174.501 150.937C174.367 151.621 174.207 152.297 174.023 152.964L173.541 152.83C173.358 153.49 173.151 154.139 172.919 154.779L173.389 154.949C173.152 155.604 172.89 156.247 172.605 156.879L172.149 156.673C171.868 157.296 171.564 157.906 171.237 158.505L171.676 158.744C171.343 159.354 170.988 159.951 170.61 160.534L170.19 160.263C169.82 160.835 169.428 161.394 169.016 161.939L169.415 162.241C168.996 162.794 168.556 163.332 168.097 163.855L167.722 163.525C167.272 164.037 166.803 164.534 166.317 165.015L166.668 165.37C166.174 165.858 165.662 166.328 165.134 166.781L164.808 166.401C164.291 166.844 163.757 167.27 163.207 167.678L163.505 168.079C162.948 168.492 162.376 168.887 161.789 169.262L161.519 168.841C160.946 169.208 160.358 169.556 159.757 169.885L159.997 170.323C159.389 170.656 158.768 170.968 158.135 171.26L157.925 170.806C157.308 171.091 156.678 171.356 156.036 171.6L156.215 172.068C155.568 172.314 154.911 172.54 154.244 172.744L154.097 172.266C153.447 172.464 152.787 172.643 152.118 172.799L152.232 173.286C151.559 173.443 150.878 173.579 150.189 173.693L150.107 173.199C149.437 173.31 148.758 173.399 148.073 173.466L148.121 173.964C147.435 174.031 146.743 174.076 146.044 174.099L146.028 173.599C145.687 173.61 145.344 173.615 145 173.615C144.656 173.615 144.313 173.61 143.972 173.599L143.956 174.099C143.257 174.076 142.565 174.031 141.879 173.964L141.927 173.466C141.242 173.399 140.563 173.31 139.893 173.199L139.811 173.693C139.122 173.579 138.441 173.443 137.768 173.286L137.882 172.799C137.213 172.643 136.553 172.464 135.903 172.266L135.756 172.744C135.089 172.54 134.432 172.314 133.785 172.068L133.964 171.6C133.322 171.356 132.692 171.091 132.075 170.806L131.865 171.26C131.232 170.968 130.611 170.656 130.003 170.323L130.243 169.885C129.642 169.556 129.054 169.208 128.481 168.841L128.211 169.262C127.624 168.887 127.052 168.492 126.495 168.079L126.793 167.678C126.243 167.27 125.709 166.844 125.192 166.401L124.866 166.781C124.338 166.328 123.826 165.858 123.332 165.37L123.683 165.015C123.197 164.534 122.728 164.037 122.278 163.525L121.903 163.855C121.444 163.332 121.004 162.794 120.585 162.241L120.984 161.939C120.572 161.394 120.18 160.835 119.81 160.263L119.39 160.534C119.012 159.951 118.657 159.354 118.324 158.744L118.763 158.505C118.436 157.906 118.132 157.296 117.851 156.673L117.395 156.879C117.11 156.247 116.848 155.604 116.611 154.949L117.081 154.779C116.849 154.14 116.642 153.49 116.459 152.83L115.977 152.964C115.793 152.297 115.633 151.621 115.499 150.937L115.99 150.841C115.86 150.175 115.755 149.501 115.676 148.82L115.18 148.878C115.1 148.192 115.047 147.5 115.02 146.801L115.52 146.782C115.507 146.442 115.5 146.1 115.5 145.758C115.5 145.415 115.507 145.073 115.52 144.733L115.02 144.714C115.047 144.015 115.1 143.323 115.18 142.637L115.676 142.695C115.755 142.014 115.86 141.34 115.99 140.674L115.499 140.578C115.633 139.894 115.793 139.218 115.977 138.551L116.459 138.685C116.642 138.025 116.849 137.376 117.081 136.736L116.611 136.566C116.848 135.911 117.11 135.268 117.395 134.636L117.851 134.842C118.132 134.219 118.436 133.609 118.763 133.01L118.324 132.771C118.657 132.161 119.012 131.564 119.39 130.981L119.81 131.252C120.18 130.68 120.572 130.121 120.984 129.576L120.585 129.274C121.004 128.721 121.444 128.183 121.903 127.66L122.278 127.99C122.728 127.478 123.197 126.981 123.683 126.5L123.332 126.145C123.826 125.657 124.338 125.187 124.866 124.734L125.192 125.114C125.709 124.671 126.243 124.245 126.793 123.837L126.495 123.436C127.052 123.023 127.624 122.628 128.211 122.253L128.481 122.674C129.054 122.307 129.642 121.959 130.243 121.63L130.003 121.192C130.611 120.859 131.232 120.547 131.865 120.255L132.075 120.709C132.692 120.424 133.322 120.159 133.964 119.915L133.785 119.447C134.432 119.201 135.089 118.975 135.756 118.771L135.903 119.249C136.553 119.051 137.213 118.872 137.882 118.716L137.768 118.229C138.441 118.072 139.122 117.936 139.811 117.822L139.893 118.316C140.563 118.205 141.242 118.116 141.927 118.049L141.879 117.551C142.565 117.484 143.257 117.439 143.956 117.417L143.972 117.916C144.313 117.905 144.656 117.9 145 117.9C145.344 117.9 145.687 117.905 146.028 117.916L146.044 117.417C146.743 117.439 147.435 117.484 148.121 117.551L148.073 118.049C148.758 118.116 149.437 118.205 150.107 118.316L150.189 117.822C150.878 117.936 151.559 118.072 152.232 118.229L152.118 118.716C152.787 118.872 153.447 119.051 154.097 119.249L154.244 118.771C154.911 118.975 155.568 119.201 156.215 119.447L156.036 119.915C156.678 120.159 157.308 120.424 157.925 120.709L158.135 120.255C158.768 120.547 159.389 120.859 159.997 121.192L159.757 121.63C160.358 121.959 160.946 122.307 161.519 122.674L161.789 122.253C162.376 122.628 162.948 123.023 163.505 123.436L163.207 123.837C163.757 124.245 164.291 124.671 164.808 125.114L165.134 124.734C165.662 125.187 166.174 125.657 166.668 126.145L166.317 126.5C166.803 126.981 167.272 127.478 167.722 127.99L168.097 127.66C168.556 128.183 168.996 128.721 169.415 129.274L169.016 129.576C169.428 130.121 169.82 130.68 170.19 131.252L170.61 130.981C170.988 131.564 171.343 132.161 171.676 132.771L171.237 133.01C171.564 133.609 171.868 134.219 172.149 134.842L172.605 134.636C172.89 135.268 173.152 135.911 173.389 136.566L172.919 136.736C173.151 137.376 173.358 138.025 173.541 138.685L174.023 138.551C174.207 139.218 174.367 139.894 174.501 140.578L174.01 140.674C174.14 141.34 174.245 142.014 174.324 142.695L174.82 142.637Z" stroke="#0038FF" stroke-dasharray="2 2"/>
<path d="M167.793 136.05C165.44 131.113 161.365 127.09 156.249 124.653C151.133 122.217 145.288 121.515 139.69 122.665L139.743 122.896C145.285 121.757 151.072 122.452 156.137 124.865C161.201 127.277 165.236 131.26 167.565 136.147L167.793 136.05Z" fill="#0038FF"/>
<path d="M196.962 174.115C202.975 164.269 205.72 152.942 204.839 141.604C203.958 130.265 199.492 119.438 192.022 110.529C184.551 101.619 174.42 95.0369 162.942 91.637C151.465 88.2372 139.172 88.1764 127.658 91.4624L128.352 93.6342C139.405 90.4796 151.207 90.538 162.225 93.8019C173.243 97.0657 182.969 103.384 190.141 111.938C197.313 120.491 201.6 130.885 202.445 141.77C203.291 152.655 200.656 163.529 194.883 172.981L196.962 174.115Z" fill="white"/>
<path d="M93.0385 117.4C87.0247 127.246 84.2803 138.573 85.1611 149.911C86.042 161.25 90.5076 172.076 97.9784 180.986C105.449 189.896 115.58 196.478 127.058 199.878C138.535 203.278 150.828 203.339 162.342 200.052L161.648 197.881C150.595 201.035 138.793 200.977 127.775 197.713C116.757 194.449 107.031 188.131 99.8593 179.577C92.6873 171.024 88.4003 160.63 87.5547 149.745C86.7091 138.86 89.3438 127.986 95.1169 118.534L93.0385 117.4Z" fill="#C4C4C4"/>
<path d="M210 145.757C210 132.021 205.13 118.68 196.168 107.866C187.206 97.0525 174.668 89.3896 160.559 86.1015L159.625 89.6809C172.888 92.7717 184.673 99.9748 193.098 110.14C201.522 120.304 206.1 132.845 206.1 145.757H210Z" fill="white"/>
<path d="M81.9728 130.735C78.4196 144.055 79.6912 158.116 85.5843 170.673C91.4774 183.23 101.652 193.558 114.483 200.007L116.314 196.752C104.253 190.69 94.6887 180.982 89.1492 169.178C83.6097 157.375 82.4144 144.157 85.7544 131.636L81.9728 130.735Z" fill="white"/>
<defs>
<filter id="filter0_f_1_1019" x="0" y="0" width="280" height="272.337" filterUnits="userSpaceOnUse" color-interpolation-filters="sRGB">
<feFlood flood-opacity="0" result="BackgroundImageFix"/>
<feBlend mode="normal" in="SourceGraphic" in2="BackgroundImageFix" result="shape"/>
<feGaussianBlur stdDeviation="35" result="effect1_foregroundBlur_1_1019"/>
</filter>
</defs>
</svg>
