<svg width="280" height="274" viewBox="0 0 280 274" fill="none" xmlns="http://www.w3.org/2000/svg">
<g filter="url(#filter0_f_1_948)">
<ellipse cx="140" cy="136.882" rx="70" ry="66.1683" fill="#110BBC"/>
</g>
<path d="M176.793 133.72C176.793 125.999 174.292 118.463 169.627 112.125C164.962 105.787 158.356 100.951 150.697 98.2673C143.038 95.5835 134.693 95.1804 126.785 97.1124C118.876 99.0443 111.783 103.219 106.458 109.074L107.065 109.567C112.283 103.829 119.234 99.7378 126.985 97.8445C134.735 95.9512 142.913 96.3462 150.419 98.9763C157.924 101.606 164.398 106.346 168.97 112.557C173.542 118.768 175.993 126.153 175.993 133.72H176.793Z" fill="white"/>
<path d="M176.793 133.72C176.793 125.999 174.292 118.463 169.627 112.125C164.962 105.787 158.356 100.951 150.697 98.2673C143.038 95.5835 134.693 95.1804 126.785 97.1124C118.876 99.0443 111.783 103.219 106.458 109.074L107.065 109.567C112.283 103.829 119.234 99.7378 126.985 97.8445C134.735 95.9512 142.913 96.3462 150.419 98.9763C157.924 101.606 164.398 106.346 168.97 112.557C173.542 118.768 175.993 126.153 175.993 133.72H176.793Z" fill="white"/>
<path d="M173.312 149.148C176.645 142.099 177.615 134.254 176.091 126.668C174.568 119.083 170.624 112.12 164.79 106.715C158.956 101.311 151.512 97.7246 143.458 96.4382C135.403 95.1517 127.126 96.2269 119.737 99.5191L120.078 100.203C127.319 96.9768 135.431 95.9231 143.324 97.1838C151.217 98.4446 158.513 101.959 164.23 107.255C169.947 112.552 173.812 119.375 175.305 126.809C176.798 134.243 175.848 141.931 172.581 148.839L173.312 149.148Z" fill="white"/>
<path d="M172.36 154.835C176.486 148.625 178.712 141.456 178.791 134.123C178.869 126.789 176.798 119.579 172.806 113.291C168.813 107.003 163.057 101.883 156.174 98.4986C149.291 95.1145 141.551 93.5987 133.812 94.1192L133.872 94.9112C141.456 94.4011 149.041 95.8866 155.786 99.203C162.531 102.519 168.173 107.537 172.085 113.699C175.998 119.862 178.028 126.928 177.951 134.115C177.874 141.301 175.692 148.327 171.649 154.413L172.36 154.835Z" fill="white"/>
<path d="M101.088 121.426C99.1194 126.535 98.4033 131.999 98.9936 137.407C99.5839 142.815 101.465 148.025 104.496 152.646C107.526 157.267 111.626 161.177 116.488 164.082C121.349 166.987 126.845 168.811 132.561 169.416L132.646 168.703C127.044 168.109 121.658 166.322 116.894 163.475C112.13 160.628 108.111 156.796 105.142 152.267C102.172 147.739 100.328 142.633 99.7496 137.333C99.1711 132.033 99.8729 126.678 101.802 121.672L101.088 121.426Z" fill="#C4C4C4"/>
<path d="M97.3561 127.398C96.1094 134.346 96.9421 141.486 99.7601 148.011C102.578 154.536 107.269 160.187 113.304 164.325C119.34 168.464 126.478 170.925 133.915 171.433C141.351 171.94 148.79 170.472 155.391 167.195L155.019 166.526C148.55 169.737 141.26 171.175 133.972 170.678C126.684 170.181 119.689 167.769 113.774 163.713C107.86 159.657 103.262 154.12 100.501 147.725C97.7391 141.331 96.9231 134.334 98.1449 127.524L97.3561 127.398Z" fill="white"/>
<path d="M140.6 148.434C136.147 148.434 131.213 148.167 125.8 147.634V142.234C131.693 142.634 136.093 142.834 139 142.834C139.613 142.834 140.093 142.66 140.44 142.314C140.813 141.94 141 141.447 141 140.834V139.234C141 137.634 140.2 136.834 138.6 136.834H130.2V131.234H137.8C139.4 131.234 140.2 130.434 140.2 128.834V128.034C140.2 126.434 139.4 125.634 137.8 125.634H126.2V120.034H139.8C142.413 120.034 144.333 120.634 145.56 121.834C146.787 123.007 147.4 124.807 147.4 127.234C147.4 128.834 147.027 130.14 146.28 131.154C145.56 132.14 144.6 132.834 143.4 133.234C145.56 133.82 147.027 135.26 147.8 137.554C148.067 138.38 148.2 139.34 148.2 140.434V140.834C148.2 143.447 147.587 145.367 146.36 146.594C145.133 147.82 143.213 148.434 140.6 148.434Z" fill="white"/>
<path d="M166.613 130.6C166.693 131.285 166.746 131.978 166.773 132.677L166.273 132.696C166.286 133.036 166.293 133.377 166.293 133.72C166.293 134.063 166.286 134.405 166.273 134.744L166.773 134.764C166.746 135.463 166.693 136.155 166.613 136.84L166.117 136.783C166.038 137.464 165.933 138.138 165.803 138.804L166.294 138.899C166.16 139.584 166 140.26 165.816 140.927L165.334 140.793C165.151 141.452 164.943 142.102 164.712 142.741L165.182 142.912C164.945 143.566 164.683 144.21 164.398 144.842L163.942 144.636C163.661 145.258 163.357 145.869 163.03 146.467L163.469 146.707C163.136 147.317 162.781 147.914 162.403 148.497L161.983 148.225C161.613 148.798 161.221 149.357 160.809 149.901L161.208 150.203C160.789 150.757 160.349 151.295 159.89 151.818L159.515 151.488C159.065 152 158.596 152.497 158.11 152.977L158.461 153.333C157.967 153.82 157.455 154.291 156.927 154.744L156.601 154.364C156.084 154.807 155.55 155.233 155 155.641L155.298 156.042C154.741 156.455 154.169 156.85 153.582 157.225L153.312 156.804C152.739 157.17 152.151 157.519 151.55 157.847L151.789 158.286C151.182 158.618 150.561 158.931 149.928 159.223L149.718 158.769C149.1 159.054 148.471 159.319 147.829 159.563L148.008 160.03C147.361 160.277 146.704 160.502 146.037 160.706L145.89 160.228C145.24 160.427 144.58 160.605 143.911 160.762L144.025 161.249C143.352 161.406 142.671 161.542 141.982 161.655L141.9 161.162C141.23 161.273 140.551 161.362 139.866 161.429L139.914 161.926C139.228 161.993 138.536 162.039 137.837 162.061L137.821 161.561C137.48 161.572 137.137 161.578 136.793 161.578C136.449 161.578 136.106 161.572 135.765 161.561L135.749 162.061C135.05 162.039 134.358 161.993 133.672 161.926L133.72 161.429C133.035 161.362 132.356 161.273 131.685 161.162L131.604 161.655C130.915 161.542 130.234 161.406 129.561 161.249L129.675 160.762C129.006 160.605 128.346 160.427 127.696 160.228L127.549 160.706C126.882 160.502 126.225 160.277 125.578 160.03L125.757 159.563C125.115 159.319 124.485 159.054 123.868 158.769L123.658 159.223C123.025 158.931 122.404 158.618 121.796 158.286L122.036 157.847C121.435 157.519 120.847 157.17 120.274 156.804L120.004 157.225C119.417 156.85 118.845 156.455 118.288 156.042L118.586 155.641C118.036 155.233 117.502 154.807 116.985 154.364L116.659 154.744C116.13 154.291 115.619 153.82 115.125 153.333L115.476 152.977C114.99 152.497 114.521 152 114.071 151.488L113.696 151.818C113.237 151.295 112.797 150.757 112.378 150.203L112.777 149.901C112.365 149.357 111.973 148.798 111.603 148.225L111.183 148.497C110.805 147.914 110.45 147.317 110.117 146.707L110.556 146.467C110.229 145.869 109.925 145.258 109.644 144.636L109.188 144.842C108.903 144.21 108.641 143.566 108.404 142.912L108.874 142.741C108.642 142.102 108.435 141.452 108.252 140.793L107.77 140.927C107.586 140.26 107.426 139.584 107.292 138.9L107.783 138.804C107.653 138.138 107.548 137.464 107.469 136.783L106.972 136.84C106.893 136.155 106.84 135.463 106.813 134.764L107.313 134.744C107.3 134.405 107.293 134.063 107.293 133.72C107.293 133.377 107.3 133.036 107.313 132.696L106.813 132.677C106.84 131.978 106.893 131.285 106.972 130.6L107.469 130.658C107.548 129.976 107.653 129.302 107.783 128.637L107.292 128.541C107.426 127.856 107.586 127.18 107.77 126.514L108.252 126.647C108.435 125.988 108.642 125.338 108.874 124.699L108.404 124.529C108.641 123.874 108.903 123.23 109.188 122.599L109.644 122.804C109.925 122.182 110.229 121.571 110.556 120.973L110.117 120.733C110.45 120.123 110.805 119.526 111.183 118.943L111.603 119.215C111.973 118.642 112.365 118.083 112.777 117.539L112.378 117.237C112.797 116.684 113.237 116.145 113.696 115.622L114.071 115.952C114.521 115.44 114.99 114.943 115.476 114.463L115.125 114.107C115.619 113.62 116.13 113.15 116.659 112.697L116.985 113.077C117.502 112.634 118.036 112.208 118.586 111.8L118.288 111.398C118.845 110.985 119.417 110.591 120.004 110.215L120.274 110.637C120.847 110.27 121.435 109.922 122.036 109.593L121.796 109.154C122.404 108.822 123.025 108.51 123.658 108.218L123.868 108.672C124.485 108.387 125.115 108.122 125.757 107.877L125.578 107.41C126.225 107.164 126.882 106.938 127.549 106.734L127.696 107.212C128.346 107.013 129.006 106.835 129.675 106.679L129.561 106.192C130.234 106.034 130.915 105.899 131.604 105.785L131.685 106.278C132.356 106.168 133.035 106.079 133.72 106.012L133.672 105.514C134.357 105.447 135.05 105.402 135.749 105.379L135.765 105.879C136.106 105.868 136.449 105.862 136.793 105.862C137.137 105.862 137.479 105.868 137.821 105.879L137.837 105.379C138.536 105.402 139.228 105.447 139.914 105.514L139.866 106.012C140.551 106.079 141.23 106.168 141.9 106.278L141.982 105.785C142.671 105.899 143.352 106.034 144.025 106.192L143.911 106.679C144.58 106.835 145.24 107.013 145.89 107.212L146.036 106.734C146.704 106.938 147.361 107.164 148.008 107.41L147.829 107.877C148.471 108.122 149.1 108.387 149.718 108.672L149.928 108.218C150.561 108.51 151.182 108.822 151.789 109.154L151.55 109.593C152.151 109.922 152.739 110.27 153.312 110.637L153.582 110.215C154.169 110.591 154.741 110.985 155.298 111.398L155 111.8C155.55 112.208 156.084 112.634 156.601 113.077L156.927 112.697C157.455 113.15 157.967 113.62 158.461 114.107L158.11 114.463C158.596 114.943 159.065 115.44 159.515 115.952L159.89 115.622C160.349 116.145 160.789 116.684 161.208 117.237L160.809 117.539C161.221 118.083 161.613 118.642 161.983 119.215L162.403 118.943C162.781 119.526 163.136 120.123 163.469 120.733L163.03 120.973C163.357 121.571 163.661 122.182 163.942 122.804L164.398 122.599C164.683 123.23 164.945 123.874 165.182 124.528L164.712 124.699C164.943 125.338 165.151 125.988 165.334 126.647L165.816 126.514C166 127.18 166.16 127.856 166.294 128.541L165.803 128.637C165.933 129.302 166.038 129.976 166.117 130.658L166.613 130.6Z" stroke="#0038FF" stroke-dasharray="2 2"/>
<path d="M159.586 124.013C157.233 119.076 153.158 115.053 148.042 112.616C142.926 110.18 137.081 109.478 131.483 110.628L131.536 110.859C137.078 109.72 142.865 110.415 147.93 112.827C152.994 115.239 157.029 119.222 159.358 124.11L159.586 124.013Z" fill="#0038FF"/>
<path d="M121.263 188.503C132.881 191.446 145.166 191.02 156.524 187.281C167.883 183.542 177.79 176.663 184.961 167.536C192.132 158.408 196.236 147.454 196.74 136.095C197.243 124.736 194.124 113.496 187.786 103.834L185.746 105.029C191.831 114.305 194.825 125.096 194.342 136C193.858 146.905 189.919 157.421 183.035 166.183C176.15 174.945 166.639 181.549 155.735 185.139C144.831 188.728 133.037 189.137 121.884 186.312L121.263 188.503Z" fill="white"/>
<path d="M136.792 77.0046C124.764 77.0046 113.014 80.4214 103.067 86.8118C93.1189 93.2022 85.4326 102.271 81.005 112.842C76.5774 123.413 75.6129 134.997 78.2366 146.092C80.8603 157.188 86.9511 167.282 95.7188 175.064L97.3617 173.41C88.9447 165.939 83.0976 156.249 80.5788 145.598C78.06 134.946 78.986 123.825 83.2365 113.677C87.487 103.529 94.8658 94.8229 104.416 88.6881C113.965 82.5534 125.245 79.2732 136.792 79.2732L136.792 77.0046Z" fill="#C4C4C4"/>
<path d="M104.292 80.5092C91.7062 87.3777 81.9188 98.0347 76.4926 110.778C71.0665 123.522 70.3146 137.616 74.3571 150.811L78.1032 149.785C74.3032 137.382 75.01 124.133 80.1106 112.155C85.2112 100.176 94.4113 90.1582 106.242 83.7018L104.292 80.5092Z" fill="white"/>
<path d="M154.53 192.852C168.508 189.099 180.754 181.025 189.311 169.919C197.868 158.814 202.244 145.318 201.738 131.587L197.841 131.716C198.317 144.623 194.204 157.309 186.16 167.748C178.116 178.187 166.605 185.777 153.465 189.305L154.53 192.852Z" fill="white"/>
<defs>
<filter id="filter0_f_1_948" x="0" y="0.713623" width="280" height="272.337" filterUnits="userSpaceOnUse" color-interpolation-filters="sRGB">
<feFlood flood-opacity="0" result="BackgroundImageFix"/>
<feBlend mode="normal" in="SourceGraphic" in2="BackgroundImageFix" result="shape"/>
<feGaussianBlur stdDeviation="35" result="effect1_foregroundBlur_1_948"/>
</filter>
</defs>
</svg>
