<svg width="280" height="274" viewBox="0 0 280 274" fill="none" xmlns="http://www.w3.org/2000/svg">
<g filter="url(#filter0_f_1_995)">
<ellipse cx="140" cy="136.882" rx="70" ry="66.1683" fill="#110BBC"/>
</g>
<path d="M179.924 136.685C179.924 128.964 177.423 121.428 172.758 115.09C168.093 108.752 161.486 103.916 153.827 101.232C146.168 98.5486 137.824 98.1455 129.915 100.077C122.007 102.009 114.914 106.184 109.589 112.039L110.196 112.532C115.414 106.794 122.365 102.703 130.116 100.81C137.866 98.9163 146.044 99.3113 153.549 101.941C161.055 104.572 167.529 109.311 172.101 115.522C176.673 121.733 179.124 129.118 179.124 136.685H179.924Z" fill="white"/>
<path d="M175.491 157.801C179.617 151.59 181.843 144.421 181.922 137.088C182 129.755 179.929 122.544 175.936 116.256C171.944 109.968 166.187 104.848 159.305 101.464C152.422 98.0798 144.682 96.564 136.943 97.0845L137.003 97.8765C144.587 97.3664 152.172 98.852 158.917 102.168C165.662 105.485 171.304 110.502 175.216 116.665C179.129 122.827 181.159 129.893 181.082 137.08C181.005 144.266 178.823 151.292 174.779 157.378L175.491 157.801Z" fill="white"/>
<path d="M104.219 124.392C102.25 129.5 101.534 134.964 102.125 140.372C102.715 145.78 104.596 150.991 107.626 155.611C110.657 160.232 114.757 164.142 119.619 167.047C124.48 169.952 129.976 171.776 135.692 172.382L135.776 171.668C130.175 171.074 124.789 169.287 120.025 166.44C115.261 163.593 111.242 159.761 108.272 155.233C105.303 150.704 103.459 145.598 102.88 140.298C102.302 134.998 103.004 129.644 104.933 124.638L104.219 124.392Z" fill="#C4C4C4"/>
<path d="M100.487 130.363C99.2403 137.311 100.073 144.451 102.891 150.976C105.709 157.501 110.4 163.152 116.435 167.29C122.47 171.429 129.609 173.891 137.046 174.398C144.482 174.905 151.921 173.437 158.522 170.16L158.15 169.491C151.681 172.702 144.391 174.14 137.103 173.643C129.815 173.146 122.819 170.734 116.905 166.678C110.991 162.622 106.393 157.085 103.632 150.69C100.87 144.296 100.054 137.299 101.276 130.489L100.487 130.363Z" fill="white"/>
<path d="M150.533 131.996C150.533 134.262 149.573 136.222 147.653 137.876C147.066 138.382 146.426 138.889 145.733 139.396L137.133 145.596H150.533V151.196H128.933V143.596L143.333 133.196V131.196C143.333 129.596 142.533 128.796 140.933 128.796H129.733V123.196H142.533C145.333 123.196 147.359 123.836 148.613 125.116C149.893 126.369 150.533 128.396 150.533 131.196V131.996Z" fill="white"/>
<path d="M169.953 133.762C170.033 134.447 170.086 135.139 170.113 135.838L169.613 135.857C169.626 136.197 169.633 136.539 169.633 136.882C169.633 137.225 169.626 137.566 169.613 137.906L170.113 137.925C170.086 138.624 170.033 139.317 169.953 140.002L169.457 139.944C169.378 140.626 169.273 141.3 169.143 141.965L169.634 142.061C169.5 142.746 169.34 143.422 169.156 144.088L168.674 143.955C168.491 144.614 168.283 145.264 168.052 145.903L168.522 146.073C168.285 146.728 168.023 147.371 167.738 148.003L167.282 147.798C167.001 148.42 166.697 149.031 166.37 149.629L166.809 149.869C166.476 150.478 166.12 151.075 165.743 151.659L165.323 151.387C164.953 151.96 164.561 152.519 164.149 153.063L164.547 153.365C164.129 153.918 163.689 154.457 163.23 154.979L162.854 154.65C162.405 155.162 161.936 155.658 161.449 156.139L161.801 156.495C161.307 156.982 160.795 157.452 160.266 157.905L159.941 157.525C159.424 157.968 158.89 158.394 158.34 158.802L158.638 159.204C158.081 159.617 157.509 160.011 156.922 160.387L156.652 159.965C156.079 160.332 155.491 160.68 154.89 161.009L155.129 161.448C154.522 161.78 153.901 162.092 153.267 162.384L153.058 161.93C152.44 162.215 151.81 162.48 151.169 162.725L151.347 163.192C150.701 163.438 150.044 163.664 149.376 163.868L149.23 163.39C148.58 163.589 147.92 163.767 147.251 163.923L147.364 164.41C146.692 164.568 146.011 164.703 145.322 164.817L145.24 164.324C144.57 164.434 143.891 164.523 143.206 164.59L143.254 165.088C142.568 165.155 141.875 165.2 141.177 165.223L141.16 164.723C140.819 164.734 140.477 164.74 140.133 164.74C139.789 164.74 139.446 164.734 139.105 164.723L139.089 165.223C138.39 165.2 137.697 165.155 137.011 165.088L137.06 164.59C136.374 164.523 135.696 164.434 135.025 164.324L134.944 164.817C134.255 164.703 133.573 164.568 132.901 164.41L133.015 163.923C132.346 163.767 131.686 163.589 131.036 163.39L130.889 163.868C130.222 163.664 129.564 163.438 128.918 163.192L129.096 162.725C128.455 162.48 127.825 162.215 127.207 161.93L126.998 162.384C126.365 162.092 125.744 161.78 125.136 161.448L125.376 161.009C124.775 160.68 124.187 160.332 123.613 159.965L123.344 160.387C122.757 160.011 122.184 159.617 121.628 159.204L121.926 158.802C121.376 158.394 120.842 157.968 120.324 157.525L119.999 157.905C119.47 157.452 118.959 156.982 118.465 156.495L118.816 156.139C118.329 155.658 117.861 155.162 117.411 154.65L117.035 154.979C116.577 154.457 116.137 153.918 115.718 153.365L116.117 153.063C115.705 152.519 115.313 151.96 114.942 151.387L114.523 151.659C114.145 151.075 113.79 150.478 113.457 149.869L113.895 149.629C113.569 149.031 113.265 148.42 112.984 147.798L112.528 148.003C112.243 147.371 111.981 146.728 111.744 146.073L112.214 145.903C111.982 145.264 111.775 144.614 111.592 143.955L111.11 144.088C110.925 143.422 110.766 142.746 110.632 142.061L111.123 141.965C110.993 141.3 110.888 140.626 110.809 139.944L110.312 140.002C110.233 139.317 110.179 138.624 110.153 137.925L110.652 137.906C110.639 137.566 110.633 137.225 110.633 136.882C110.633 136.539 110.639 136.197 110.652 135.857L110.153 135.838C110.179 135.139 110.233 134.447 110.312 133.762L110.809 133.819C110.888 133.138 110.993 132.464 111.123 131.798L110.632 131.702C110.766 131.018 110.925 130.342 111.11 129.675L111.592 129.809C111.775 129.15 111.982 128.5 112.214 127.86L111.744 127.69C111.981 127.036 112.243 126.392 112.528 125.76L112.984 125.966C113.265 125.344 113.569 124.733 113.895 124.135L113.457 123.895C113.79 123.285 114.145 122.688 114.523 122.105L114.942 122.377C115.313 121.804 115.705 121.245 116.117 120.7L115.718 120.399C116.137 119.845 116.577 119.307 117.035 118.784L117.411 119.114C117.861 118.602 118.329 118.105 118.816 117.625L118.465 117.269C118.959 116.782 119.47 116.311 119.999 115.858L120.324 116.238C120.842 115.795 121.376 115.369 121.926 114.961L121.628 114.56C122.185 114.147 122.757 113.752 123.344 113.377L123.613 113.798C124.187 113.431 124.775 113.083 125.376 112.755L125.136 112.316C125.744 111.984 126.365 111.671 126.998 111.379L127.207 111.833C127.825 111.548 128.455 111.283 129.096 111.039L128.918 110.572C129.564 110.325 130.222 110.1 130.889 109.896L131.036 110.374C131.686 110.175 132.346 109.997 133.015 109.84L132.901 109.353C133.573 109.196 134.255 109.06 134.944 108.947L135.025 109.44C135.696 109.329 136.374 109.24 137.06 109.173L137.011 108.676C137.697 108.609 138.39 108.563 139.089 108.541L139.105 109.041C139.446 109.029 139.789 109.024 140.133 109.024C140.477 109.024 140.819 109.029 141.16 109.041L141.177 108.541C141.875 108.563 142.568 108.609 143.254 108.676L143.206 109.173C143.891 109.24 144.57 109.329 145.24 109.44L145.322 108.947C146.011 109.06 146.692 109.196 147.364 109.353L147.251 109.84C147.92 109.997 148.58 110.175 149.23 110.374L149.376 109.896C150.044 110.1 150.701 110.325 151.347 110.572L151.169 111.039C151.81 111.283 152.44 111.548 153.058 111.833L153.267 111.379C153.901 111.671 154.522 111.984 155.129 112.316L154.89 112.755C155.491 113.083 156.079 113.431 156.652 113.798L156.922 113.377C157.509 113.752 158.081 114.147 158.638 114.56L158.34 114.961C158.89 115.369 159.424 115.795 159.941 116.238L160.266 115.858C160.795 116.311 161.307 116.782 161.801 117.269L161.449 117.625C161.936 118.105 162.405 118.602 162.854 119.114L163.23 118.784C163.689 119.307 164.129 119.845 164.547 120.399L164.149 120.7C164.561 121.245 164.953 121.804 165.323 122.377L165.743 122.105C166.12 122.688 166.476 123.285 166.809 123.895L166.37 124.135C166.697 124.733 167.001 125.344 167.282 125.966L167.738 125.76C168.023 126.392 168.285 127.036 168.522 127.69L168.052 127.86C168.283 128.5 168.491 129.15 168.674 129.809L169.156 129.675C169.34 130.342 169.5 131.018 169.634 131.702L169.143 131.798C169.273 132.464 169.378 133.138 169.457 133.819L169.953 133.762Z" stroke="#8000FF" stroke-dasharray="2 2"/>
<path d="M84.5647 158.558C90.43 171.822 101.405 182.486 115.271 188.393C129.137 194.3 144.858 195.009 159.256 190.376C173.654 185.744 185.653 176.116 192.828 163.44C200.002 150.764 201.816 135.986 197.903 122.093L195.584 122.677C199.341 136.014 197.599 150.201 190.711 162.37C183.824 174.539 172.304 183.782 158.483 188.229C144.661 192.676 129.568 191.995 116.257 186.324C102.946 180.654 92.4098 170.417 86.779 157.683L84.5647 158.558Z" fill="white"/>
<path d="M191.886 108.328C185.872 98.4819 176.867 90.5717 166.038 85.6235C155.21 80.6753 143.058 78.9176 131.159 80.5784C119.261 82.2393 108.165 87.242 99.3119 94.9374C90.4585 102.633 84.2562 112.666 81.5097 123.735L83.8463 124.253C86.4829 113.627 92.4371 103.995 100.936 96.6074C109.436 89.2197 120.088 84.4171 131.51 82.8227C142.933 81.2283 154.598 82.9157 164.994 87.666C175.389 92.4162 184.034 100.01 189.807 109.462L191.886 108.328Z" fill="white"/>
<path d="M156.746 77.3369C142.709 73.7815 127.816 74.7752 114.446 80.1594C101.077 85.5435 90.0016 95.0074 82.9897 107.039L86.4057 108.818C92.9969 97.508 103.408 88.612 115.975 83.5509C128.543 78.4898 142.542 77.5557 155.737 80.8978L156.746 77.3369Z" fill="white"/>
<path d="M152.471 197.005C162.559 195.128 172.032 191.014 180.112 185.001C188.192 178.988 194.648 171.248 198.95 162.417L195.408 160.874C191.365 169.175 185.296 176.451 177.701 182.103C170.106 187.755 161.201 191.622 151.718 193.387L152.471 197.005Z" fill="white"/>
<defs>
<filter id="filter0_f_1_995" x="0" y="0.713623" width="280" height="272.337" filterUnits="userSpaceOnUse" color-interpolation-filters="sRGB">
<feFlood flood-opacity="0" result="BackgroundImageFix"/>
<feBlend mode="normal" in="SourceGraphic" in2="BackgroundImageFix" result="shape"/>
<feGaussianBlur stdDeviation="35" result="effect1_foregroundBlur_1_995"/>
</filter>
</defs>
</svg>
