<svg width="142" height="33" viewBox="0 0 142 33" fill="none" xmlns="http://www.w3.org/2000/svg">
<path fill-rule="evenodd" clip-rule="evenodd" d="M11.4476 4.99681C8.67919 7.74505 6.41409 10.0291 6.41409 10.0725C6.41409 10.1806 8.08654 11.9155 9.22084 12.9839L10.1519 13.8611L10.6338 13.4394C10.8988 13.2075 12.1665 11.9838 13.4509 10.72C14.7353 9.45618 15.8842 8.37263 16.0041 8.31217C16.5109 8.05643 16.9387 8.09593 17.4144 8.44242C17.5464 8.53849 18.6771 9.62197 19.9273 10.8502C21.1774 12.0784 22.3888 13.2591 22.6194 13.474L23.0386 13.8647L23.9523 13.006C25.0443 11.9796 26.7376 10.2305 26.7673 10.0982C26.7956 9.9718 16.7518 0 16.596 0C16.5269 0 14.4791 1.98745 11.4476 4.99681ZM121.619 1.02439C120.322 1.17083 119.108 1.58495 118.131 2.21469C115.951 3.61969 114.653 6.20943 114.793 8.87088C114.842 9.78066 114.855 9.88866 114.974 10.3545C115.308 11.6565 115.689 12.4194 116.509 13.4315C116.833 13.8318 117.863 14.7745 117.976 14.7745C117.998 14.7745 118.133 14.8542 118.276 14.9517C118.891 15.3707 119.757 15.7107 120.766 15.9293C121.459 16.0794 123.365 16.0802 124.047 15.9306C125.691 15.57 126.577 15.108 127.799 13.9739C128.065 13.7276 128.282 13.4978 128.282 13.4635C128.282 13.3764 127.031 12.0543 126.59 11.6751L126.227 11.3626L125.931 11.6046C125.645 11.8385 125.479 11.9465 124.95 12.2443C123.916 12.8264 122.937 13.0484 121.979 12.9181C121.697 12.8798 121.374 12.8102 121.261 12.7633C121.148 12.7164 121.035 12.6766 121.01 12.6749C120.985 12.6731 120.783 12.5823 120.56 12.473C119.937 12.1673 119.161 11.3694 118.828 10.6928C118.146 9.30992 118.148 7.75352 118.832 6.36726C119.307 5.40462 120.357 4.53478 121.369 4.26489C122.199 4.04389 123.209 4.10336 124.017 4.42073C124.665 4.6756 125.473 5.11136 125.802 5.38416C125.962 5.51689 126.112 5.62544 126.135 5.62544C126.158 5.62544 126.307 5.47936 126.466 5.30089C126.625 5.12243 126.827 4.9068 126.914 4.82181C127.002 4.7368 127.265 4.43081 127.5 4.14181C127.735 3.85281 127.997 3.54131 128.082 3.44957L128.237 3.28278L127.876 2.95502C126.818 1.99209 125.687 1.42336 124.265 1.13931C123.837 1.05375 122.047 0.976045 121.619 1.02439ZM87.7956 1.15482L87.1952 1.17887L87.0567 1.50125C86.9805 1.67854 86.8351 1.99054 86.7335 2.19454C86.6319 2.39854 86.2264 3.31654 85.8323 4.23453C85.4382 5.15253 85.0782 5.98707 85.0325 6.08907C84.9868 6.19107 84.7063 6.8448 84.4094 7.5418C84.1123 8.2388 83.832 8.89252 83.7863 8.99452C83.7406 9.09652 83.5451 9.55552 83.3519 10.0145C83.1587 10.4735 82.9466 10.967 82.8805 11.1111C82.8144 11.2553 82.7604 11.3873 82.7604 11.4046C82.7604 11.4219 82.6741 11.6238 82.5686 11.8534C82.463 12.083 82.3537 12.3265 82.3255 12.3945C82.1122 12.9091 81.7322 13.8004 81.634 14.0166C81.5685 14.1607 81.5149 14.3078 81.5149 14.3436C81.5149 14.3794 81.3888 14.7124 81.2347 15.0836C81.0806 15.4548 80.9545 15.774 80.9545 15.793C80.9545 15.8119 81.7026 15.82 82.6169 15.8109L84.2793 15.7945L84.5055 15.269C84.6298 14.98 84.8885 14.4218 85.0802 14.0286C85.4807 13.2072 85.7244 12.9457 86.2828 12.7383C86.6336 12.608 86.7151 12.6043 88.7662 12.6227L90.887 12.6418L91.2422 12.8149C91.4375 12.9102 91.6735 13.0771 91.7665 13.1858C91.9261 13.3725 92.6927 14.8934 92.9488 15.5315L93.0665 15.825L94.7635 15.8252C95.6967 15.8253 96.4604 15.8098 96.4604 15.7908C96.4604 15.7718 96.3383 15.4588 96.1889 15.0953C96.0397 14.7319 95.8811 14.3232 95.8365 14.1872C95.7919 14.0512 95.4909 13.328 95.1676 12.58C94.8442 11.832 94.4872 10.9974 94.3741 10.7254C94.2611 10.4534 93.9808 9.7997 93.7513 9.2727C93.5217 8.7457 93.3284 8.2867 93.3218 8.2527C93.3151 8.2187 93.2794 8.13525 93.2424 8.06725C93.1503 7.89762 92.2356 5.76305 91.918 4.97635C91.8906 4.90835 91.7981 4.69971 91.7126 4.51271C91.6271 4.32572 91.4806 3.9919 91.387 3.7709C91.2934 3.5499 91.0764 3.06308 90.9047 2.68908C90.7331 2.31508 90.5076 1.82134 90.4036 1.59181L90.2146 1.17454L89.8035 1.17417C89.5774 1.17399 89.1683 1.16409 88.8942 1.15229C88.6202 1.14042 88.1259 1.14153 87.7956 1.15482ZM131.987 1.23636L130.866 1.26727L130.817 2.34908C130.754 3.73325 130.787 15.6455 130.854 15.7481C130.894 15.809 132.081 15.8254 136.443 15.8254H141.982L141.996 15.2227C142.012 14.5253 141.978 12.9622 141.945 12.927C141.933 12.9138 140.402 12.886 138.543 12.8651L135.163 12.8272L134.834 12.6465C134.225 12.3115 134.001 11.5919 134.275 10.8491C134.402 10.5071 134.589 10.3088 134.939 10.1457L135.287 9.98361L138.121 9.9527L140.954 9.92179L140.971 8.49423L140.988 7.06673L140.006 7.0263C139.466 7.00404 138.211 6.98562 137.218 6.98531C135.347 6.98476 135.109 6.95916 134.752 6.72061C133.819 6.09618 134.049 4.62133 135.129 4.30284C135.411 4.21982 135.832 4.20356 137.712 4.20344C138.947 4.20332 140.399 4.18502 140.939 4.16282L141.919 4.12246V2.71393C141.919 1.79142 141.897 1.29156 141.854 1.26511C141.774 1.21652 133.574 1.19259 131.987 1.23636ZM42.2622 2.29864C42.209 3.68868 42.209 13.373 42.2622 14.7629L42.3031 15.8332L46.4809 15.8086C50.4868 15.785 50.6814 15.7786 51.2068 15.6522C53.173 15.1792 54.2967 14.2095 54.6377 12.6914C54.835 11.8137 54.7266 10.7699 54.3617 10.0323C54.2406 9.78758 53.9707 9.43627 53.6179 9.06425C52.8514 8.25598 52.8054 7.94157 53.331 7.10623C53.7679 6.41195 53.8974 5.93731 53.8953 5.03817C53.8938 4.43068 53.8677 4.22143 53.7513 3.88279C53.3406 2.6884 52.3416 1.85145 50.8403 1.44395L50.2229 1.27642L46.263 1.25231L42.3031 1.22826L42.2622 2.29864ZM58.1918 1.31258C58.1753 1.35567 58.169 4.63171 58.1778 8.5927L58.1938 15.7945H59.8129H61.432L61.4711 14.929C61.4926 14.4531 61.5102 11.5739 61.5102 8.53089C61.5102 5.48789 61.4926 2.60872 61.4711 2.13272L61.432 1.26727L59.8269 1.25076C58.5765 1.23791 58.2152 1.25157 58.1918 1.31258ZM65.6765 2.20999C65.6236 3.47597 65.6236 13.5866 65.6766 14.8528L65.7172 15.8274L67.311 15.811L68.9047 15.7945L68.9435 12.3945C68.9666 10.3649 69.0077 8.917 69.0456 8.80221C69.2067 8.31372 69.3893 8.18538 69.7734 8.29066C70.1396 8.39105 70.4404 8.72765 71.9441 10.72C72.1773 11.029 72.4132 11.3362 72.4683 11.4028C72.5235 11.4694 72.7899 11.8171 73.0603 12.1756C73.3308 12.534 73.6235 12.9107 73.7108 13.0127C73.7981 13.1147 74.0611 13.4485 74.2952 13.7545C74.5293 14.0605 74.8348 14.45 74.9741 14.62C75.1134 14.79 75.3848 15.1313 75.5773 15.3784L75.9273 15.8278L77.3044 15.8111L78.6815 15.7945L78.7211 14.9909C78.7727 13.945 78.7727 3.11674 78.7211 2.0709L78.6815 1.26727L77.078 1.25076L75.4745 1.23426L75.4681 1.46713C75.4646 1.59521 75.4428 3.11872 75.4197 4.85271C75.3818 7.70308 75.3672 8.02497 75.2674 8.209C75.1171 8.4865 74.9175 8.57002 74.6178 8.48087C74.2401 8.36855 73.8231 7.91666 72.6411 6.33919C71.4429 4.74014 70.0207 2.90186 69.1315 1.80274L68.6732 1.23636H67.1952H65.7172L65.6765 2.20999ZM98.7432 2.11727C98.7209 2.6018 98.7026 5.48789 98.7026 8.53089C98.7026 11.5739 98.7209 14.46 98.7432 14.9445L98.7838 15.8254H100.362H101.94L101.947 15.6245C101.95 15.514 101.972 13.9492 101.996 12.1472C102.043 8.58411 102.048 8.54294 102.4 8.31384C102.799 8.05439 103.235 8.39223 104.289 9.77571C104.738 10.366 105.406 11.2385 105.772 11.7145C107.324 13.7314 107.527 13.9956 107.78 14.3302C107.927 14.5236 108.165 14.8191 108.31 14.9869C108.454 15.1547 108.665 15.4126 108.779 15.5599L108.985 15.8278L110.366 15.8111L111.748 15.7945V8.53089V1.26727L110.154 1.25076L108.561 1.23432L108.52 2.36349C108.497 2.98457 108.478 4.44577 108.476 5.61054C108.472 7.8758 108.436 8.20078 108.163 8.4227C107.712 8.78799 107.111 8.28708 105.77 6.42827C105.702 6.33332 105.381 5.91215 105.058 5.49234C104.734 5.07254 104.161 4.32572 103.785 3.83272C103.066 2.89141 102.465 2.13062 102.324 1.9838C102.278 1.93589 102.128 1.74809 101.99 1.56653L101.739 1.23636H100.261H98.7838L98.7432 2.11727ZM49.4099 4.37628C50.0689 4.67616 50.3786 5.06364 50.3786 5.58804C50.3786 5.94782 50.292 6.16523 50.0479 6.41912C49.5889 6.89623 49.0097 7.04744 47.6427 7.04688C46.6711 7.04651 46.4035 7.00157 46.0782 6.78391C45.4305 6.35056 45.3618 5.12978 45.9537 4.57082C46.306 4.23806 46.4637 4.20925 47.8566 4.22347C49.0036 4.23515 49.1264 4.24721 49.4099 4.37628ZM89.0981 6.72506C89.4421 7.0441 89.9217 8.16523 89.9217 8.6505C89.9217 9.28154 89.4958 9.60961 88.6763 9.60961C88.0397 9.60961 87.6799 9.43949 87.4891 9.04824C87.3675 8.79868 87.3603 8.73402 87.421 8.43389C87.5248 7.92074 87.9229 7.05894 88.1799 6.79065C88.4758 6.4818 88.81 6.45794 89.0981 6.72506ZM49.9269 10.0157C50.6509 10.2125 51.0753 10.6096 51.2018 11.2085C51.2711 11.5363 51.2661 11.5676 51.0911 11.9057C50.9625 12.1542 50.8195 12.32 50.6114 12.462C50.0916 12.8167 49.7775 12.8697 48.1368 12.88C46.4818 12.8902 46.2475 12.8454 45.8995 12.4521C45.3632 11.8457 45.4374 10.6292 46.0385 10.1741C46.3572 9.93279 46.6263 9.89818 48.1368 9.9043C49.2524 9.90881 49.6172 9.9315 49.9269 10.0157ZM1.83736 14.5583C0.826794 15.5614 0 16.4148 0 16.4546C0 16.5758 1.84576 18.4789 2.97912 19.5264L3.7396 20.2292L4.25173 19.7782C4.89656 19.2104 6.63297 17.4832 7.15127 16.8942L7.5434 16.4485L5.67441 14.5915C4.64648 13.5702 3.77603 12.7345 3.7401 12.7345C3.7041 12.7345 2.84792 13.5553 1.83736 14.5583ZM16.0771 13.2209C15.3825 13.8529 13.9772 15.2488 13.3359 15.9436L12.816 16.5068L13.7322 17.4637C14.8456 18.6265 16.4887 20.1836 16.6025 20.1836C16.7106 20.1836 18.5521 18.4291 19.5768 17.3498L20.3785 16.5055L19.9562 16.0371C19.4302 15.4536 17.556 13.5944 17.0058 13.1101L16.5956 12.7492L16.0771 13.2209ZM27.5557 14.5596C26.5453 15.5635 25.7186 16.4258 25.7186 16.476C25.7186 16.5856 29.3706 20.2328 29.4514 20.2038C29.6892 20.1184 31.8097 18.0659 32.8059 16.9567L33.2612 16.4498L31.3916 14.5921C30.3633 13.5704 29.493 12.7345 29.4574 12.7345C29.4218 12.7345 28.5661 13.5558 27.5557 14.5596ZM9.5974 19.6482C8.8256 20.3554 7.49975 21.6741 6.89128 22.3396L6.40325 22.8733L7.04696 23.564C7.86678 24.4437 15.1594 31.6812 15.984 32.4336L16.6049 33L17.5032 32.1779C18.5472 31.2224 25.7412 24.0601 26.3683 23.3518L26.7925 22.8727L26.4501 22.4863C25.9707 21.9453 24.103 20.0879 23.4968 19.5492L22.9916 19.1002L20.1984 21.8393C17.1582 24.8206 17.0711 24.8911 16.4993 24.8366C16.3032 24.8179 16.0976 24.7438 15.9274 24.6306C15.7812 24.5333 14.6106 23.4234 13.326 22.1641C12.0415 20.9048 10.8085 19.7031 10.586 19.4937L10.1816 19.1128L9.5974 19.6482ZM101.1 20.0865C99.4074 20.358 98.0722 21.3297 97.3566 22.8108C96.4128 24.7642 96.7998 27.1633 98.2988 28.6513C98.7104 29.0598 99.1785 29.3843 99.2728 29.3264C99.3175 29.299 99.3271 29.31 99.2986 29.3558C99.2404 29.4494 99.9189 29.7595 100.565 29.9344C101.246 30.119 102.521 30.1159 103.217 29.928C104.122 29.6836 104.953 29.2113 105.531 28.612L105.79 28.3436L105.239 27.7649L104.688 27.1862L104.388 27.4338C104.051 27.7127 103.633 27.9335 103.052 28.14C102.725 28.2562 102.528 28.2806 101.909 28.2811C101.173 28.2817 101.155 28.2783 100.671 28.0491C99.8584 27.6639 99.2412 26.9303 98.9426 25.9945C98.8992 25.8585 98.8624 25.4412 98.8607 25.0672C98.8575 24.2939 98.9975 23.7703 99.3582 23.207C100.034 22.1513 101.282 21.6024 102.461 21.8412C103.119 21.9744 103.961 22.3301 104.31 22.6225L104.606 22.8697L105.175 22.2243L105.744 21.5789L105.484 21.3448C104.84 20.7645 104.087 20.3625 103.31 20.1842C102.787 20.064 101.574 20.0104 101.1 20.0865ZM44.2759 20.1887C43.3576 20.4292 42.6202 20.9986 42.2662 21.7405C42.073 22.1454 42.0652 22.1919 42.0652 22.9356C42.0652 23.6854 42.0715 23.7222 42.2699 24.1223C42.3965 24.3777 42.5832 24.6301 42.7592 24.784C43.0993 25.0812 43.8301 25.4537 44.4316 25.6365C46.2451 26.1876 46.3274 26.2198 46.6435 26.5019C47.0983 26.9078 47.1747 27.3125 46.8864 27.7895C46.6021 28.2601 45.7355 28.4744 44.8865 28.2839C44.2848 28.1489 43.4523 27.7921 43.043 27.4939C42.8615 27.3616 42.6895 27.2622 42.6608 27.2731C42.5812 27.3029 41.6604 28.4154 41.6604 28.4816C41.6604 28.5884 42.5673 29.2135 43.0976 29.4723C43.8434 29.8362 44.4619 29.9822 45.4279 30.0225C46.3913 30.0627 46.9329 29.9697 47.6196 29.6459C48.4128 29.272 48.9445 28.6328 49.1336 27.8258C49.2552 27.3075 49.1874 26.4323 48.993 26.0109C48.8185 25.6325 48.4717 25.2548 48.0611 24.9961C47.8116 24.8388 46.9129 24.4341 46.7045 24.385C46.6531 24.3729 46.3729 24.2955 46.0818 24.2131C44.6564 23.8091 44.2144 23.4669 44.2139 22.7666C44.2137 22.4931 44.2433 22.4107 44.4095 22.2228C44.6407 21.9614 44.9286 21.83 45.3763 21.7815C45.9094 21.7238 47.0412 22.0373 47.6386 22.4082L47.9811 22.6208L48.089 22.484C48.4541 22.0211 48.8922 21.3285 48.8563 21.2709C48.7667 21.1269 48.0251 20.6769 47.5491 20.4776C47.2747 20.3627 46.8586 20.2288 46.6243 20.1798C46.07 20.0641 44.7325 20.0691 44.2759 20.1887ZM66.5737 20.2918C66.5435 20.3683 66.3799 20.7229 66.2101 21.0799C66.0403 21.4369 65.8096 21.9377 65.6976 22.1927C65.5855 22.4477 65.4255 22.8093 65.342 22.9963C65.2585 23.1833 65.1532 23.4198 65.108 23.5218C65.0628 23.6238 64.9639 23.8463 64.8881 24.0163C64.8124 24.1863 64.7071 24.4228 64.6541 24.5417C64.6011 24.6607 64.4639 24.959 64.3493 25.2046C64.2346 25.45 64.1409 25.6658 64.1409 25.6839C64.1409 25.7021 64.0708 25.8611 63.9852 26.0373C63.8996 26.2134 63.8295 26.3801 63.8295 26.4076C63.8295 26.4351 63.7282 26.6733 63.6045 26.9369C63.3393 27.5018 63.0318 28.2184 62.9611 28.4363C62.9335 28.5213 62.7953 28.8653 62.6541 29.2007C62.5128 29.5362 62.3972 29.8352 62.3972 29.8653C62.3972 29.8953 62.7965 29.9195 63.2846 29.9191L64.172 29.9183L64.3811 29.4243C64.6499 28.7891 65.026 28.2355 65.349 27.9995C65.8029 27.6677 66.1067 27.6195 67.5845 27.6443C68.8185 27.665 68.9241 27.6759 69.2012 27.8112C69.7103 28.0598 70.1357 28.6069 70.5162 29.5026L70.6935 29.9199H71.6206C72.1305 29.9199 72.5477 29.9087 72.5477 29.8951C72.5477 29.8814 72.4238 29.5824 72.2725 29.2305C72.1211 28.8787 71.9774 28.5121 71.9532 28.416C71.9289 28.3198 71.8426 28.1044 71.7613 27.9372C71.68 27.77 71.6136 27.6212 71.6136 27.6066C71.6136 27.5919 71.519 27.3762 71.4034 27.1272C71.2878 26.8782 71.0377 26.3123 70.8475 25.8697C70.6573 25.427 70.4016 24.8497 70.2793 24.5867C70.1569 24.3237 70.0568 24.0967 70.0568 24.0822C70.0568 24.0677 69.9713 23.8661 69.8667 23.6343C69.7622 23.4024 69.6151 23.0759 69.5398 22.9086C69.4645 22.7414 69.401 22.5884 69.3987 22.5686C69.3963 22.5489 69.2625 22.2545 69.1014 21.9145C68.9401 21.5745 68.6899 21.0394 68.5452 20.7255L68.282 20.1546L67.4553 20.1537C66.6554 20.1527 66.6269 20.1572 66.5737 20.2918ZM74.877 20.1944L74.1862 20.2184L74.1453 21.2463C74.0925 22.5758 74.0925 27.56 74.1454 28.89L74.1863 29.9199H75.0387H75.8912L75.934 28.8292C75.9697 27.9228 75.9989 27.6877 76.1072 27.4379C76.3455 26.8879 76.7619 26.6522 77.3741 26.7207C77.9661 26.7869 78.37 27.164 79.517 28.7218C79.8394 29.1597 80.1702 29.6085 80.2519 29.719L80.4004 29.9199H81.4247C81.9881 29.9199 82.449 29.9071 82.449 29.8914C82.449 29.8757 82.2865 29.6322 82.0878 29.3503C81.5687 28.6137 80.8013 27.4495 80.6825 27.2185C80.5646 26.9889 80.5468 26.391 80.652 26.1913C80.6911 26.1171 80.9363 25.8337 81.1968 25.5617C81.9019 24.8257 82.1385 24.2456 82.1369 23.256C82.1346 21.7684 81.2867 20.739 79.7277 20.3313C79.2995 20.2192 79.0247 20.2022 77.4049 20.1874C76.3946 20.1781 75.257 20.1812 74.877 20.1944ZM84.1771 20.1989L83.4454 20.2184V21.0109V21.8034L84.3016 21.8396C84.8225 21.8615 85.2914 21.9161 85.4986 21.9788C85.925 22.1079 86.27 22.434 86.3699 22.8024C86.4187 22.9821 86.4495 24.1526 86.4656 26.4318C86.4786 28.2821 86.5066 29.8239 86.5278 29.858C86.5506 29.8946 86.9218 29.9199 87.4345 29.9199H88.3027L88.3101 29.719C88.3142 29.6085 88.3352 28.0298 88.3568 26.2108C88.3952 22.9779 88.3991 22.898 88.5304 22.6563C88.853 22.0629 89.2715 21.8918 90.5289 21.8389L91.354 21.8042V21.0191V20.234L90.2798 20.1935C89.2501 20.1547 85.71 20.1578 84.1771 20.1989ZM121.185 20.8481C121.003 21.2307 120.609 22.0999 120.309 22.7799C120.009 23.4599 119.676 24.2048 119.57 24.4351C119.464 24.6654 119.377 24.8647 119.377 24.8778C119.377 24.8909 119.282 25.1058 119.166 25.3553C118.892 25.9442 117.82 28.4255 117.82 28.471C117.82 28.4902 117.694 28.799 117.54 29.1572C117.386 29.5154 117.259 29.8335 117.259 29.8642C117.259 29.8948 117.661 29.9199 118.153 29.9199H119.046L119.226 29.4717C119.611 28.5168 120.223 27.8336 120.802 27.711C120.926 27.6849 121.629 27.6636 122.366 27.6636C123.808 27.6636 123.9 27.6794 124.401 28.0146C124.691 28.2088 125.102 28.8273 125.391 29.5026L125.569 29.9199H126.49C126.996 29.9199 127.41 29.9058 127.41 29.8885C127.41 29.8712 127.27 29.5264 127.099 29.1222C126.927 28.7181 126.787 28.3677 126.787 28.3437C126.787 28.3196 126.65 27.9898 126.483 27.6108C126.315 27.2318 125.78 26.0177 125.293 24.9127C124.154 22.3308 124.187 22.404 123.626 21.1881L123.149 20.1527H122.332H121.515L121.185 20.8481ZM51.1411 25.0517L51.157 29.889L52.0035 29.9061L52.8499 29.9233L52.8909 28.9845C52.9133 28.4682 52.932 27.6537 52.9323 27.1746C52.9333 25.1332 53.1514 24.6126 53.8558 24.9693C54.1833 25.1353 54.4021 25.4033 55.4868 26.9681C55.6931 27.2656 55.8882 27.509 55.9206 27.509C55.9732 27.509 56.4993 26.8016 57.295 25.6605C57.6667 25.1274 58.0289 24.8508 58.3552 24.8508C58.5638 24.8508 58.6183 24.8801 58.7203 25.0466C58.9027 25.3443 58.9237 25.5825 58.9651 27.8181L59.0034 29.889H59.8752H60.747L60.7629 25.0517L60.7789 20.2145L59.8288 20.2167L58.8788 20.2188L58.474 20.8103C57.812 21.7777 57.1096 22.8352 57.0632 22.9345C56.868 23.3514 56.2902 23.7999 55.9483 23.7999C55.4916 23.7999 55.2218 23.528 54.3769 22.2163C54.073 21.7443 53.6444 21.1011 53.4247 20.787L53.0252 20.2159L52.0752 20.2152L51.1251 20.2145L51.1411 25.0517ZM107.523 21.1516C107.471 22.3607 107.471 27.6827 107.524 28.9463L107.564 29.9199H108.417H109.269L109.328 28.3899C109.384 26.9506 109.397 26.8442 109.536 26.598C109.864 26.0178 110.323 25.8787 111.8 25.9118C112.769 25.9334 112.819 25.9409 113.127 26.1098C113.37 26.2425 113.49 26.3619 113.62 26.5991C113.78 26.8913 113.795 26.9831 113.841 27.9373C113.868 28.5008 113.891 29.1773 113.893 29.4408L113.897 29.9199H114.759H115.621L115.661 28.7608C115.714 27.2619 115.714 22.7812 115.662 21.3371L115.621 20.2145H114.759H113.897L113.893 20.6318C113.891 20.8612 113.867 21.5219 113.841 22.0999C113.787 23.2583 113.715 23.5047 113.341 23.8177C113.006 24.097 112.769 24.1399 111.562 24.1399C110.553 24.1399 110.413 24.127 110.16 24.0099C109.465 23.6873 109.373 23.4248 109.317 21.5899L109.274 20.2145H108.419H107.564L107.523 21.1516ZM129.106 25.0517L129.122 29.889L130 29.9061L130.877 29.9232L130.918 28.8552C130.971 27.4766 130.971 22.6588 130.918 21.2808L130.878 20.2145H129.984H129.091L129.106 25.0517ZM133.429 21.1516C133.376 22.3615 133.376 27.683 133.429 28.948L133.47 29.9233L134.316 29.9061L135.163 29.889L135.202 27.6945C135.244 25.2553 135.296 24.8753 135.603 24.7364C135.811 24.6425 135.914 24.6468 136.153 24.7592C136.468 24.9075 136.653 25.0969 137.361 25.9945C137.388 26.0285 137.535 26.2232 137.687 26.4272C137.84 26.6312 138.029 26.8677 138.107 26.9527C138.185 27.0377 138.325 27.2185 138.418 27.3545C138.511 27.4905 138.623 27.6382 138.665 27.6828C138.708 27.7275 138.894 27.9639 139.079 28.2083C139.265 28.4527 139.652 28.9308 139.94 29.2708L140.464 29.889L141.182 29.9063L141.9 29.9237L141.941 28.9481C141.993 27.6871 141.993 22.4486 141.941 21.1881L141.9 20.2145H141.069H140.238L140.235 20.4463C140.233 20.5738 140.209 21.5701 140.181 22.6603C140.134 24.4666 140.118 24.6681 140.001 24.9321C139.869 25.2282 139.807 25.2607 139.438 25.228C139.11 25.199 138.673 24.8073 138.088 24.0163C137.987 23.8803 137.87 23.7273 137.828 23.6763C137.734 23.5626 137.099 22.7506 136.595 22.0979C136.39 21.832 136.081 21.4478 135.91 21.2443C135.739 21.0407 135.479 20.7257 135.333 20.5443L135.068 20.2145H134.269H133.47L133.429 21.1516ZM78.9786 22.0263C79.4945 22.2122 79.7761 22.4314 79.9544 22.7857C80.3358 23.5439 79.9147 24.4464 79.0323 24.7618C78.6559 24.8964 77.4385 24.9536 77.0043 24.8571C76.1891 24.676 75.7789 23.7902 76.066 22.8306C76.1908 22.4133 76.3669 22.2063 76.7462 22.031C77.024 21.9026 77.1548 21.8847 77.8225 21.8842C78.4615 21.8837 78.6455 21.9063 78.9786 22.0263ZM67.7492 23.715C68.009 23.8673 68.3124 24.3739 68.3891 24.7833C68.4514 25.1158 68.4451 25.1634 68.3058 25.4141C68.0454 25.8826 67.4495 26.0364 66.9063 25.7754C66.4374 25.55 66.3153 25.0091 66.597 24.4045C66.7763 24.0194 66.9317 23.8307 67.1722 23.7062C67.399 23.5888 67.5376 23.5909 67.7492 23.715ZM122.769 23.8666C123.095 24.165 123.264 24.5584 123.264 25.0165C123.264 25.5511 122.888 25.9014 122.313 25.9016C121.359 25.902 121.02 24.9807 121.64 24.0741C121.997 23.5527 122.354 23.4871 122.769 23.8666Z" fill="#D6D6D6"/>
</svg>
