<svg width="191" height="33" viewBox="0 0 191 33" fill="none" xmlns="http://www.w3.org/2000/svg">
<path fill-rule="evenodd" clip-rule="evenodd" d="M14.508 0.0836821C10.764 0.46894 7.33943 2.15767 4.63369 4.9528C1.58997 8.09702 0 12.06 0 16.5021C0 21.0921 1.73767 25.2397 4.98779 28.4072C9.80941 33.1063 16.8818 34.3211 22.9201 31.4871C24.8324 30.5897 27.0468 28.9718 27.4729 28.1609C27.6509 27.8222 27.649 27.1253 27.4691 26.7761C27.1995 26.2526 26.5629 25.9319 25.9556 26.0138C25.5964 26.0621 25.4173 26.1798 24.2784 27.1154C22.7613 28.3618 21.0549 29.1806 18.9298 29.6819C18.0038 29.9004 17.787 29.9194 16.1949 29.9223C14.687 29.9251 14.3542 29.9005 13.5933 29.7294C10.9937 29.1449 8.61807 27.8561 6.89019 26.093L6.31552 25.5066L9.69967 20.0515C11.561 17.0513 13.1196 14.5604 13.1633 14.5161C13.213 14.4658 13.2427 15.5475 13.2427 17.4052C13.2427 20.5412 13.2824 20.9886 13.6277 21.7467C14.0396 22.6509 14.6231 23.0539 15.5201 23.0536C16.1927 23.0534 16.7206 22.8067 17.3178 22.2136C17.8469 21.6881 17.8606 21.6674 20.2007 17.8571C21.302 16.0638 22.2462 14.5429 22.2988 14.4774C22.3711 14.3873 22.4065 14.9063 22.4431 16.5946C22.4969 19.072 22.5466 19.3741 23.0804 20.4719C23.5037 21.3421 24.3124 22.1583 25.1441 22.5546C25.9297 22.929 26.5952 23.0557 27.4555 22.9948C29.7207 22.8345 31.5486 21.1493 32.1389 18.6769C32.447 17.3868 32.3473 14.6394 31.9237 12.747C31.264 9.79981 29.6739 6.92347 27.4952 4.73591C24.071 1.29772 19.3039 -0.409895 14.508 0.0836821ZM18.135 3.16557C21.0786 3.63823 23.5354 4.94984 25.6842 7.196C28.0329 9.65101 29.3272 12.8686 29.3764 16.375C29.3895 17.3109 29.3609 17.6677 29.2406 18.0688C28.8237 19.4591 27.7383 20.2474 26.6768 19.9309C26.1927 19.7866 25.8906 19.4946 25.6265 18.9157C25.4412 18.5098 25.431 18.3746 25.381 15.6552C25.3332 13.0587 25.3132 12.7698 25.1457 12.2499C24.7901 11.1462 24.0644 10.5055 23.0804 10.4262C22.5968 10.3872 22.4731 10.4114 22.0005 10.6368C20.8727 11.1748 20.5728 11.5557 18.0893 15.6043L16.2371 18.6237L16.1885 14.874C16.1461 11.597 16.121 11.0658 15.99 10.6608C15.6549 9.62578 15.0591 9.13398 14.1405 9.13398C13.5627 9.13398 13.1652 9.31649 12.6784 9.80515C12.4768 10.0076 10.7106 12.7695 8.42322 16.4592C6.27242 19.9286 4.49131 22.7676 4.46525 22.7682C4.39077 22.7698 3.75081 21.1932 3.50308 20.3978C3.07569 19.0253 2.9285 17.8287 2.97725 16.121C3.05679 13.3339 3.7277 11.1975 5.24218 8.90946C6.01077 7.74827 7.62976 6.099 8.74679 5.33916C10.3109 4.27536 12.1362 3.52263 13.9175 3.2069C15.0469 3.00678 17.0249 2.98739 18.135 3.16557ZM49.3728 9.67693C46.866 10.1578 44.9711 11.6385 43.8578 13.9862C42.789 16.2401 42.9221 18.9817 44.2065 21.1745C45.443 23.2854 47.6937 24.6818 50.1373 24.8543C51.9159 24.9799 53.6365 24.4494 55.1859 23.298C56.141 22.5882 56.3675 22.0338 56.0075 21.2871C55.8145 20.8868 55.3307 20.5672 54.9179 20.5672C54.5486 20.5672 54.1194 20.7633 53.7038 21.1218C53.2023 21.5544 52.2504 21.991 51.4801 22.142C49.625 22.5054 47.729 21.65 46.7778 20.0203C46.662 19.8218 46.4639 19.3587 46.3375 18.9911C46.1365 18.4065 46.1081 18.1958 46.1097 17.3066C46.1113 16.4391 46.1443 16.1902 46.3351 15.6062C47.3267 12.5712 50.5596 11.4465 53.3394 13.1691C53.7358 13.4148 53.9373 13.4858 54.239 13.4858C55.2005 13.4858 55.8492 12.4717 55.4702 11.561C55.2141 10.9457 53.8963 10.156 52.5492 9.81066C51.6406 9.57776 50.2047 9.51729 49.3728 9.67693ZM70.2195 9.71538C69.2229 10.1699 68.8956 11.4191 69.5266 12.3593C70.1415 13.2753 71.6616 13.2482 72.3064 12.3099C73.0776 11.1876 72.2425 9.56116 70.895 9.56116C70.7095 9.56116 70.4055 9.63052 70.2195 9.71538ZM159.394 9.68599C157.889 9.97292 156.614 10.6612 155.492 11.7932C153.988 13.3098 153.261 15.0785 153.261 17.2219C153.261 19.3958 153.993 21.158 155.53 22.6845C157.448 24.5898 160.012 25.2994 162.577 24.635C163.911 24.2896 165.803 23.1424 166.11 22.4927C166.485 21.6989 166.059 20.7615 165.249 20.5989C164.815 20.5117 164.431 20.6399 163.917 21.043C162.877 21.8592 161.899 22.2112 160.684 22.2063C160.047 22.2038 159.758 22.1589 159.274 21.9875C157.375 21.3148 156.188 19.5139 156.188 17.3066C156.188 14.5183 158.162 12.3522 160.704 12.3522C161.634 12.3522 162.893 12.7587 163.672 13.311C163.836 13.427 164.051 13.4858 164.311 13.4858C165.375 13.4858 165.991 12.4018 165.489 11.414C165.207 10.8601 163.926 10.1367 162.632 9.801C161.766 9.57623 160.252 9.52245 159.394 9.68599ZM87.3008 9.89619C87.1349 10.0628 87.1321 10.1785 87.1321 16.8141C87.1321 23.4821 87.1343 23.567 87.3081 23.9275C87.4049 24.1282 87.5995 24.375 87.7406 24.4759C88.0117 24.6696 88.662 24.775 89.0238 24.6839C89.2667 24.6226 89.7868 24.1901 89.9399 23.9221C90.0135 23.7933 90.054 22.7562 90.0843 20.2223L90.1265 16.7014L91.8978 18.6353C93.8713 20.7899 94.0271 20.9039 94.5797 20.5999C94.7395 20.5121 95.6437 19.5958 96.5892 18.5638L98.3083 16.6874L98.3505 20.2152C98.3918 23.666 98.3967 23.7496 98.5783 24.0427C99.1273 24.929 100.452 24.9395 101.051 24.0625L101.261 23.7556L101.285 17.0165C101.298 13.3099 101.289 10.1963 101.264 10.0975C101.204 9.84987 100.767 9.67456 100.507 9.79355C100.398 9.84335 98.9968 11.3685 97.3927 13.1829C95.7887 14.9972 94.4153 16.5052 94.3407 16.5339C94.2662 16.5626 94.1331 16.5474 94.045 16.5C93.9569 16.4527 92.596 14.9549 91.0209 13.1716C89.4457 11.3883 88.0574 9.88366 87.9358 9.82802C87.627 9.68675 87.4953 9.7009 87.3008 9.89619ZM125.176 9.8563C124.788 10.0314 124.598 10.2125 124.405 10.5915C124.253 10.8916 124.246 11.1894 124.247 17.2397C124.249 23.2336 124.258 23.5924 124.406 23.9209C124.62 24.3936 125.007 24.654 125.566 24.7005C126.113 24.746 126.441 24.6215 126.772 24.2431C127.14 23.8219 127.197 23.4815 127.197 21.6848L127.198 20.0499L129.032 22.1906C130.041 23.3679 130.996 24.418 131.154 24.5241C132.01 25.1004 133.271 24.3478 133.271 23.2605C133.271 22.7847 133.209 22.6907 131.628 20.7793C130.858 19.8489 130.42 19.2526 130.459 19.1881C130.493 19.1315 131.073 18.482 131.748 17.7448C132.423 17.0077 133.027 16.3063 133.09 16.1864C133.38 15.6361 133.027 14.6537 132.427 14.3424C132.059 14.1511 131.492 14.1806 131.154 14.4088C130.996 14.5151 130.051 15.5071 129.053 16.6133L127.24 18.6244L127.198 14.7049C127.156 10.7973 127.155 10.7845 126.962 10.4721C126.587 9.86816 125.773 9.58716 125.176 9.8563ZM147.463 9.82141C147.061 9.93803 146.64 10.4032 146.526 10.8557C146.473 11.0682 146.429 11.8672 146.429 12.6342V14.0269L145.841 14.0603C145.191 14.0972 144.922 14.2404 144.595 14.7227C144.333 15.108 144.341 15.6573 144.613 16.1237C144.875 16.5735 145.248 16.7561 145.903 16.7561H146.406L146.452 19.2757C146.491 21.4444 146.522 21.8859 146.67 22.4467C146.878 23.2344 147.019 23.5212 147.42 23.9664C148.01 24.6219 148.841 24.8864 150.312 24.8864C151.021 24.8864 151.165 24.8612 151.412 24.6939C152.043 24.2673 152.249 23.5723 151.933 22.9402C151.707 22.4881 151.305 22.261 150.731 22.261C150.035 22.261 149.728 22.1294 149.565 21.7626C149.455 21.5122 149.424 21.0289 149.398 19.1063L149.366 16.7561H150.141C151.365 16.7561 151.829 16.4215 151.894 15.4913C151.921 15.1022 151.892 14.9696 151.73 14.7314C151.356 14.1852 151.146 14.0915 150.224 14.0594L149.391 14.0304L149.365 12.3587L149.339 10.687L149.096 10.3671C148.836 10.0252 148.293 9.72681 147.947 9.7363C147.832 9.73952 147.613 9.7778 147.463 9.82141ZM61.294 14.1782C58.6876 14.7653 56.877 17.1305 57.0514 19.7203C57.1476 21.1501 57.6266 22.1985 58.6605 23.2432C59.9884 24.5848 61.714 25.1286 63.4724 24.7596C64.9292 24.4538 66.3588 23.318 67.0448 21.9212C67.8826 20.2152 67.8331 18.2608 66.9117 16.6729C66.2869 15.5958 65.2192 14.7341 63.9595 14.2902C63.3016 14.0583 62.0582 14.0061 61.294 14.1782ZM79.4713 14.1367C78.9842 14.2329 78.264 14.5708 77.7701 14.9348C77.2989 15.2821 77.2633 15.2903 77.2633 15.0523C77.2633 14.9537 77.116 14.7251 76.9359 14.5442C76.6389 14.246 76.5673 14.2154 76.1668 14.2154C75.7663 14.2154 75.6947 14.246 75.3977 14.5442L75.0703 14.873V19.3167V23.7604L75.2621 24.0461C75.3675 24.2033 75.5858 24.4219 75.7471 24.5319C75.9935 24.6999 76.1217 24.7269 76.55 24.7004C77.1577 24.6629 77.5238 24.4383 77.7714 23.9511C77.9255 23.6478 77.9381 23.4469 77.9381 21.302C77.9381 20.0255 77.9767 18.7773 78.0238 18.5279C78.1411 17.9069 78.408 17.3853 78.738 17.1326C79.3701 16.6485 80.6018 16.6763 81.1819 17.1877C81.7358 17.676 81.7621 17.8344 81.8138 20.9975L81.8604 23.8414L82.0967 24.1523C82.4073 24.5608 82.7269 24.7171 83.2521 24.7171C83.7934 24.7171 84.115 24.5515 84.4347 24.1085L84.686 23.7601L84.6848 20.7874C84.6834 17.4468 84.6469 17.1472 84.1183 16.1372C83.3886 14.743 82.1055 14.0266 80.3898 14.0554C80.0852 14.0604 79.6718 14.097 79.4713 14.1367ZM106.893 14.1683C105.562 14.473 104.325 15.4707 103.682 16.7561C103.253 17.615 103.077 18.3918 103.077 19.4239C103.077 20.4701 103.254 21.2298 103.715 22.1683C104.384 23.529 105.487 24.4473 106.836 24.7668C108.256 25.1029 110.228 24.5977 111.046 23.6881C111.208 23.5088 111.359 23.362 111.382 23.362C111.405 23.362 111.425 23.4782 111.425 23.6203C111.425 24.2234 111.906 24.7171 112.495 24.7171C113.015 24.7171 113.347 24.52 113.538 24.0975C113.689 23.7644 113.698 23.4868 113.698 19.4662C113.698 15.4456 113.689 15.1681 113.538 14.835C113.347 14.4125 113.015 14.2154 112.495 14.2154C111.906 14.2154 111.425 14.7091 111.425 15.3122C111.425 15.627 111.347 15.6365 111.083 15.3546C110.154 14.3619 108.318 13.8421 106.893 14.1683ZM120.657 14.1642C120.088 14.3029 119.515 14.5895 119.019 14.9829L118.611 15.3068L118.558 15.0217C118.525 14.8455 118.392 14.6369 118.209 14.4759C117.692 14.0203 116.881 14.1548 116.518 14.7563C116.369 15.0029 116.357 15.276 116.333 18.9581C116.318 21.1241 116.33 23.0944 116.359 23.3366C116.421 23.8464 116.662 24.2483 117.078 24.5319C117.467 24.7976 118.25 24.7692 118.662 24.4746C119.213 24.0808 119.222 24.0283 119.269 21.033C119.311 18.3505 119.313 18.3187 119.522 17.9038C119.638 17.6733 119.866 17.3795 120.028 17.2511C120.374 16.9772 121.149 16.7561 121.762 16.7561C123.173 16.7561 123.626 14.8367 122.36 14.2214C121.949 14.0216 121.328 14.0006 120.657 14.1642ZM137.686 14.1329C135.212 14.581 133.773 16.5868 133.778 19.5796C133.78 20.669 133.945 21.4556 134.338 22.261C134.918 23.4463 136.026 24.3017 137.488 24.6925C138.178 24.877 140.173 24.8977 140.862 24.7276C141.556 24.5562 142.346 24.1409 142.677 23.773C142.937 23.4838 142.971 23.393 142.971 22.9836C142.971 22.5873 142.934 22.4783 142.71 22.2228C142.55 22.0401 142.317 21.889 142.108 21.8324C141.755 21.737 141.744 21.7393 140.703 22.1295C140.5 22.2057 140.049 22.3042 139.703 22.3483C138.293 22.5279 137.082 21.966 136.817 21.0092C136.636 20.3527 136.365 20.4084 139.871 20.3806C142.746 20.3576 143.032 20.3424 143.239 20.2014C143.667 19.9101 143.773 19.6531 143.757 18.9547C143.704 16.6958 142.443 14.9228 140.44 14.2924C139.809 14.0935 138.365 14.0099 137.686 14.1329ZM170.975 14.1787C169.216 14.561 167.751 16.0775 167.298 17.9841C167.099 18.8227 167.116 20.1714 167.338 21.0161C167.94 23.3099 169.806 24.8864 171.918 24.8864C173.038 24.8864 174.438 24.3782 175.072 23.741C175.442 23.3701 175.53 23.3815 175.53 23.8004C175.53 24.0504 175.771 24.4199 176.039 24.5785C176.167 24.6547 176.451 24.7171 176.67 24.7171C177.019 24.7171 177.107 24.6772 177.395 24.3883L177.723 24.0594V19.4662V14.873L177.395 14.5442C177.107 14.2553 177.019 14.2154 176.67 14.2154C175.994 14.2154 175.606 14.5802 175.49 15.3231L175.443 15.6262L175.046 15.2603C173.964 14.2625 172.445 13.859 170.975 14.1787ZM184.977 14.1787C184.311 14.3234 183.535 14.6959 183.075 15.0915L182.733 15.3851L182.585 14.9654C182.336 14.2615 181.583 13.996 180.944 14.387C180.405 14.717 180.422 14.4829 180.424 21.602C180.425 27.7077 180.434 28.0813 180.582 28.4078C181.089 29.5282 182.658 29.5369 183.195 28.4223C183.362 28.0764 183.374 27.916 183.374 26.0608V24.0704L183.943 24.349C185.089 24.9092 186.623 25.0252 187.732 24.6352C188.352 24.4171 189.283 23.7842 189.657 23.3265C190.13 22.7472 190.536 22.0045 190.774 21.2871C190.973 20.6848 190.998 20.4779 191 19.4239C191.002 18.3418 190.981 18.1791 190.766 17.5615C189.864 14.967 187.555 13.618 184.977 14.1787ZM70.1906 14.359C70.0352 14.4359 69.8074 14.6514 69.6845 14.8379L69.4611 15.1768L69.4377 19.3649C69.4147 23.4792 69.4174 23.5595 69.5925 23.9227C69.8213 24.3972 70.1777 24.649 70.6904 24.6985C71.2149 24.7492 71.4522 24.6851 71.7862 24.403C72.3712 23.9088 72.3672 23.9422 72.3693 19.4847C72.3709 16.059 72.3522 15.435 72.2406 15.1667C72.0863 14.796 71.826 14.4991 71.5108 14.3344C71.2048 14.1746 70.5383 14.187 70.1906 14.359ZM109.398 17.0732C111.552 18.1765 110.946 21.8676 108.554 22.2151C107.205 22.4111 106.017 21.1045 106.017 19.4259C106.017 18.3926 106.435 17.5622 107.175 17.127C107.915 16.6913 108.619 16.6743 109.398 17.0732ZM173.398 17.0199C173.888 17.2576 174.473 17.9346 174.654 18.4737C174.836 19.014 174.836 19.957 174.654 20.4623C174.333 21.3556 173.644 21.9913 172.792 22.1829C171.836 22.3977 170.824 21.7929 170.336 20.7141C170.034 20.0487 170 19.0946 170.25 18.368C170.463 17.7502 171.128 17.0736 171.701 16.8903C172.212 16.7272 172.904 16.78 173.398 17.0199ZM186.692 16.9954C187.161 17.2038 187.591 17.6375 187.849 18.1624C188.024 18.5166 188.054 18.7004 188.054 19.4239C188.055 20.16 188.027 20.3318 187.837 20.7366C187.384 21.7014 186.672 22.2101 185.78 22.2054C185.154 22.2021 184.763 22.0407 184.267 21.5809C183.055 20.4595 183.094 18.2584 184.342 17.3024C185.052 16.7589 185.908 16.6471 186.692 16.9954ZM63.3988 17.0786C65.3383 18.0731 65.0336 21.5047 62.949 22.1456C61.8306 22.4894 60.5314 21.6908 60.1402 20.4188C59.5438 18.4804 60.6847 16.7659 62.5023 16.869C62.8403 16.8882 63.1842 16.9686 63.3988 17.0786ZM139.713 17.0137C139.966 17.1087 140.276 17.2677 140.402 17.3669C140.619 17.5385 140.941 18.1175 140.945 18.3441C140.946 18.426 140.47 18.4499 138.838 18.4499C136.512 18.4499 136.608 18.4754 136.845 17.9179C137.224 17.0288 138.599 16.5951 139.713 17.0137Z" fill="#D6D6D6"/>
</svg>
