<svg width="103" height="33" viewBox="0 0 103 33" fill="none" xmlns="http://www.w3.org/2000/svg">
<g clip-path="url(#clip0_1_646)">
<path d="M95.3865 0L73.2061 32.7053H80.016L102.312 0H95.3865Z" fill="#D6D6D6"/>
<path d="M80.7262 0L87.2524 9.63717L83.8474 14.8938L73.7744 0H80.7262Z" fill="#D6D6D6"/>
<path d="M96.048 32.7079L88.8125 22.0486L92.2175 16.938L102.858 32.7079H96.048Z" fill="#D6D6D6"/>
<path fill-rule="evenodd" clip-rule="evenodd" d="M65.2618 0H71.2205V32.7053H65.2618V31.4838C63.5409 32.4504 61.5651 33 59.464 33C52.7934 33 47.3857 27.4595 47.3857 20.625C47.3857 13.7905 52.7934 8.25 59.464 8.25C61.5651 8.25 63.5409 8.79964 65.2618 9.76622V0ZM59.4004 27.5687C63.1785 27.5687 66.2413 24.4307 66.2413 20.5598C66.2413 16.6889 63.1785 13.551 59.4004 13.551C55.6223 13.551 52.5596 16.6889 52.5596 20.5598C52.5596 24.4307 55.6223 27.5687 59.4004 27.5687Z" fill="#D6D6D6"/>
<path d="M47.9788 0L25.8213 32.7053H32.7677L54.9039 0H47.9788Z" fill="#D6D6D6"/>
<path d="M32.7726 0L39.7244 9.9292L35.8939 15.4779L25.5371 0H32.7726Z" fill="#D6D6D6"/>
<path fill-rule="evenodd" clip-rule="evenodd" d="M17.876 0H23.8347V32.7053H17.876V31.4838C16.1551 32.4504 14.1794 33 12.0783 33C5.40764 33 0 27.4595 0 20.625C0 13.7905 5.40764 8.25 12.0783 8.25C14.1794 8.25 16.1551 8.79964 17.876 9.76622V0ZM12.0147 27.5687C15.7928 27.5687 18.8555 24.4307 18.8555 20.5598C18.8555 16.6889 15.7928 13.551 12.0147 13.551C8.23662 13.551 5.17389 16.6889 5.17389 20.5598C5.17389 24.4307 8.23662 27.5687 12.0147 27.5687Z" fill="#D6D6D6"/>
</g>
<defs>
<clipPath id="clip0_1_646">
<rect width="103" height="33" fill="white"/>
</clipPath>
</defs>
</svg>
