<svg width="108" height="33" viewBox="0 0 108 33" fill="none" xmlns="http://www.w3.org/2000/svg">
<path fill-rule="evenodd" clip-rule="evenodd" d="M8.07536 8.08857C3.63397 12.5373 0 16.2615 0 16.3643C0 16.4672 3.69634 20.2523 8.2141 24.7757L16.4282 33L24.6464 24.7777C29.1664 20.2555 32.8646 16.4694 32.8646 16.3641C32.8646 16.1171 23.3053 6.54506 23.0586 6.54506C22.9559 6.54506 20.6905 8.73074 18.0246 11.4021C13.2205 16.2159 13.1731 16.2566 12.7307 15.9662C12.4568 15.7865 12.2174 15.7403 12.1114 15.8465C12.0161 15.9419 11.9622 17.0226 11.9913 18.2482L12.0441 20.4767H14.3783H16.7124L16.6655 20.0064C16.6278 19.6273 17.0528 19.1026 18.8596 17.2978C20.0922 16.0668 21.1006 14.9633 21.1006 14.8457C21.1006 14.7281 20.9745 14.5272 20.8205 14.3991C20.6664 14.271 20.5404 14.0479 20.5404 13.9032C20.5404 13.688 20.9742 13.6494 22.9212 13.6923L25.302 13.7446L25.3551 15.8794C25.4137 18.2366 25.3052 18.5412 24.5501 18.1365C24.078 17.8835 24.014 17.9365 20.2965 21.6559C18.2208 23.7329 16.4385 25.4322 16.3358 25.4322C16.0923 25.4322 7.09577 16.4173 7.09577 16.1732C7.09577 16.0706 9.91074 13.1685 13.3513 9.72409C16.7918 6.2797 19.6067 3.33293 19.6067 3.17566C19.6067 2.80914 16.7942 0 16.4275 0C16.2751 0 12.5168 3.6398 8.07536 8.08857ZM66.4827 4.2887C66.3764 4.48767 66.2894 5.53955 66.2894 6.62622V8.60208H65.6359H64.9823V10.0046V11.4071H65.6359H66.2894V17.0172V22.6272H67.4895C68.5638 22.6272 68.7304 22.5754 69.0768 22.1345C69.447 21.6632 69.4639 21.4184 69.4639 16.5244V11.4071H71.0511C72.0079 11.4071 72.6383 11.3312 72.6383 11.216C72.6383 10.8854 74.1769 9.33643 74.8697 8.96972L75.5326 8.61853L72.4982 8.61031L69.4639 8.60208V6.62622C69.4639 4.03755 69.3989 3.92704 67.8766 3.92704C66.8808 3.92704 66.6431 3.98875 66.4827 4.2887ZM89.8031 4.47364C89.3656 4.91179 89.2573 5.18312 89.2573 5.84118C89.2573 7.88997 91.9692 8.53176 92.912 6.70625C93.8925 4.80725 91.317 2.95762 89.8031 4.47364ZM41.5147 8.49717C39.7946 9.03592 38.7041 10.0811 37.7635 12.0923C37.306 13.0703 37.2541 13.3875 37.2629 15.1471C37.2756 17.7257 37.7146 18.9152 39.1972 20.3892C41.2294 22.4097 44.0886 22.6599 46.5087 21.0291L47.4744 20.3783L47.3932 22.1105C47.2673 24.7962 46.5303 25.842 44.5739 26.1105C44.0948 26.1761 43.4347 26.1266 43.0181 25.9932C42.2439 25.7456 41.0808 24.7693 41.0808 24.3671C41.0808 23.4586 39.138 23.0156 38.2636 23.7247C37.8569 24.0546 37.846 24.1193 38.0722 24.8748C38.8137 27.3533 41.0119 28.7983 44.041 28.7983C46.0941 28.7983 47.199 28.4209 48.4215 27.3019C49.944 25.9083 50.2916 24.9694 50.3822 22.0052C50.453 19.6898 50.4371 19.5667 49.9251 18.4522C49.4769 17.4764 49.3847 17.0043 49.3294 15.4031C49.2699 13.6738 49.3087 13.4047 49.775 12.3176C50.3553 10.9641 50.5736 9.2966 50.2253 8.87622C49.907 8.49193 48.1123 8.50615 47.723 8.89586C47.5616 9.05761 47.4296 9.34634 47.4296 9.53783C47.4296 9.83909 47.3032 9.80057 46.4863 9.25004C44.9569 8.21947 43.2349 7.9586 41.5147 8.49717ZM55.0856 8.40292C53.3301 8.93962 51.6464 10.5304 50.9564 12.3043C50.3658 13.8226 50.3775 16.4674 50.982 18.0457C51.587 19.6255 53.3185 21.3539 54.7112 21.7681C56.6052 22.3314 58.5285 22.0576 59.8687 21.034C60.2026 20.7789 60.5124 20.5702 60.5572 20.5702C60.6018 20.5702 60.6838 20.9102 60.7394 21.3255C60.8935 22.4754 61.1078 22.6272 62.5776 22.6272H63.8619V16.0303C63.8619 8.2795 63.9222 8.55009 62.2112 8.64004C61.2341 8.69147 61.1321 8.74027 60.8585 9.28837L60.5628 9.88117L60.0183 9.43349C58.82 8.44836 56.5131 7.96646 55.0856 8.40292ZM77.3674 9.34672C75.6142 9.72016 74.0862 10.9944 73.2704 12.7634C72.7712 13.8456 72.7316 14.0967 72.7316 16.1756C72.7316 18.2538 72.7703 18.4984 73.2534 19.4837C73.9439 20.8918 75.4486 22.2655 76.7684 22.6927C77.5168 22.935 78.7229 23.0476 81.493 23.1336C85.1095 23.246 85.2081 23.2393 85.0501 22.8914C84.8536 22.4583 84.8533 21.3803 85.0495 20.8039L85.1927 20.3832H81.8973C78.4766 20.3832 77.723 20.2491 76.8668 19.4878C76.4213 19.0916 75.8222 17.8157 75.8168 17.2509L75.8127 16.8302H80.2715C85.46 16.8302 85.254 16.904 85.1016 15.0974C84.8126 11.671 82.6455 9.44471 79.4147 9.25509C78.7175 9.21432 77.7962 9.25546 77.3674 9.34672ZM99.1408 10.1548C97.3289 10.6696 95.5688 12.1209 94.6395 13.8664C94.2619 14.5751 94.2062 14.9439 94.2059 16.7367C94.2057 18.5754 94.2585 18.9066 94.7042 19.8588C95.3403 21.2178 96.6401 22.5195 97.9971 23.1564C98.938 23.5981 99.2866 23.6557 101.021 23.6557C102.759 23.6557 103.104 23.5987 104.053 23.1531C105.337 22.5505 106.763 21.1744 107.338 19.9838C108.219 18.1586 108.221 15.5082 107.343 13.7841C106.707 12.536 105.244 11.1356 103.985 10.5699C102.629 9.96064 100.474 9.77589 99.1408 10.1548ZM89.934 10.4465C89.65 10.7608 89.6274 11.3069 89.7036 16.0098C89.7501 18.878 89.8029 21.4351 89.8209 21.6922C89.839 21.9493 89.7938 22.3912 89.7204 22.674L89.5873 23.1882H90.7937C92.7139 23.1882 92.6185 23.5364 92.6185 16.5255C92.6185 12.1248 92.5593 10.4876 92.3944 10.3225C92.025 9.9526 90.3019 10.0394 89.934 10.4465ZM46.0252 11.6719C47.01 12.4242 47.5015 13.6126 47.5015 15.2406C47.5015 17.7581 46.1147 19.3216 43.8817 19.3216C41.6555 19.3216 40.3339 17.814 40.3339 15.2745C40.3339 12.4063 41.6243 10.9641 44.089 11.0785C45.1087 11.1259 45.4454 11.2291 46.0252 11.6719ZM58.5746 11.2321C60.0016 11.7719 60.864 13.2732 60.8701 15.2283C60.877 17.4261 59.9241 18.7916 58.0553 19.2621C56.8272 19.5712 55.7694 19.2472 54.7835 18.2598C52.8213 16.2948 53.3402 12.5237 55.7391 11.3172C56.3914 10.9892 57.8193 10.9461 58.5746 11.2321ZM80.4772 12.2957C81.1272 12.6228 81.9748 13.67 81.9748 14.1463C81.9748 14.3483 81.3711 14.3991 78.9746 14.3991H75.9742L76.1018 13.9784C76.2642 13.4415 76.8711 12.7631 77.5866 12.318C78.2977 11.8757 79.6224 11.8654 80.4772 12.2957ZM102.906 13.1515C105.56 14.5551 105.561 19.292 102.908 20.6512C101.35 21.4489 99.2364 21.0695 98.1487 19.7969C96.4397 17.7975 97.0158 14.1929 99.2188 13.1008C100.304 12.563 101.833 12.5839 102.906 13.1515ZM86.4091 20.5672C85.7908 21.0543 85.6303 21.7446 85.9787 22.4191C86.6048 23.632 88.4977 23.4014 88.7881 22.0769C89.0993 20.6577 87.5459 19.6718 86.4091 20.5672Z" fill="#B1B1B1"/>
</svg>
