<svg width="19" height="19" viewBox="0 0 19 19" fill="none" xmlns="http://www.w3.org/2000/svg">
<path d="M9.54175 5.02173C7.0616 5.02173 5.0611 7.00556 5.0611 9.46504C5.0611 11.9245 7.0616 13.9084 9.54175 13.9084C12.0219 13.9084 14.0224 11.9245 14.0224 9.46504C14.0224 7.00556 12.0219 5.02173 9.54175 5.02173ZM9.54175 12.3538C7.93901 12.3538 6.62875 11.0583 6.62875 9.46504C6.62875 7.87179 7.93511 6.57631 9.54175 6.57631C11.1484 6.57631 12.4548 7.87179 12.4548 9.46504C12.4548 11.0583 11.1445 12.3538 9.54175 12.3538ZM15.2508 4.83997C15.2508 5.41617 14.7828 5.87636 14.2057 5.87636C13.6246 5.87636 13.1606 5.4123 13.1606 4.83997C13.1606 4.26764 13.6285 3.80359 14.2057 3.80359C14.7828 3.80359 15.2508 4.26764 15.2508 4.83997ZM18.2184 5.89183C18.1521 4.50353 17.8323 3.27379 16.8067 2.26061C15.785 1.24742 14.545 0.93032 13.145 0.860712C11.7021 0.779502 7.37747 0.779502 5.93462 0.860712C4.53856 0.926453 3.29848 1.24356 2.27288 2.25674C1.24729 3.26992 0.931416 4.49967 0.861224 5.88796C0.779332 7.31879 0.779332 11.6074 0.861224 13.0383C0.927517 14.4265 1.24729 15.6563 2.27288 16.6695C3.29848 17.6827 4.53466 17.9998 5.93462 18.0694C7.37747 18.1506 11.7021 18.1506 13.145 18.0694C14.545 18.0036 15.785 17.6865 16.8067 16.6695C17.8284 15.6563 18.1482 14.4265 18.2184 13.0383C18.3003 11.6074 18.3003 7.32266 18.2184 5.89183ZM16.3544 14.5735C16.0502 15.3315 15.4614 15.9154 14.6931 16.2209C13.5428 16.6733 10.813 16.5689 9.54175 16.5689C8.27048 16.5689 5.53686 16.6695 4.39037 16.2209C3.62605 15.9193 3.03721 15.3353 2.72914 14.5735C2.27288 13.4327 2.37817 10.7257 2.37817 9.46504C2.37817 8.20436 2.27678 5.49351 2.72914 4.35658C3.03331 3.59863 3.62215 3.01469 4.39037 2.70919C5.54075 2.25674 8.27048 2.36115 9.54175 2.36115C10.813 2.36115 13.5467 2.26061 14.6931 2.70919C15.4575 3.01083 16.0463 3.59476 16.3544 4.35658C16.8106 5.49738 16.7053 8.20436 16.7053 9.46504C16.7053 10.7257 16.8106 13.4366 16.3544 14.5735Z" fill="#EFEFEF"/>
</svg>
