<svg width="22" height="19" viewBox="0 0 22 19" fill="none" xmlns="http://www.w3.org/2000/svg">
<path d="M17.2538 18.7909C17.0957 18.7909 16.9387 18.7444 16.804 18.6537L11.7148 15.2231L8.98526 17.1749C8.77119 17.3279 8.49527 17.3664 8.24669 17.2781C7.99843 17.1896 7.80989 16.9852 7.74259 16.7318L6.37206 11.5703L1.47497 9.70951C1.16668 9.59232 0.962223 9.29922 0.95998 8.9712C0.957736 8.64318 1.15814 8.34732 1.46493 8.22599L20.0854 0.863034C20.1699 0.827366 20.2593 0.806771 20.3495 0.801251C20.3818 0.799341 20.4141 0.799341 20.4463 0.801145C20.633 0.812185 20.8164 0.887768 20.9596 1.02726C20.9744 1.04169 20.9885 1.05645 21.0019 1.07184C21.1204 1.20645 21.1856 1.37056 21.1979 1.53776C21.2009 1.5798 21.2007 1.62237 21.1969 1.66493C21.1944 1.69529 21.19 1.72555 21.1838 1.75559L18.0407 18.1438C17.9902 18.4071 17.8099 18.6274 17.5608 18.7301C17.462 18.7709 17.3576 18.7909 17.2538 18.7909ZM12.1616 13.6002L16.6949 16.6559L19.1405 3.90407L10.3076 12.3505L12.1403 13.5859C12.1476 13.5905 12.1547 13.5953 12.1616 13.6002ZM8.38791 12.9207L8.99488 15.2063L10.3026 14.2711L8.59023 13.1168C8.51065 13.0633 8.4425 12.9966 8.38791 12.9207ZM3.96555 8.95093L7.32812 10.2285C7.56901 10.32 7.75082 10.5213 7.81662 10.7691L8.24306 12.3751C8.26261 12.1898 8.3471 12.0155 8.48437 11.8842L16.9008 3.83613L3.96555 8.95093Z" fill="#EFEFEF"/>
</svg>
