<svg width="22" height="17" viewBox="0 0 22 17" fill="none" xmlns="http://www.w3.org/2000/svg">
<path d="M19.0394 4.5379C19.0523 4.70896 19.0523 4.88005 19.0523 5.0511C19.0523 10.2685 14.8784 16.2801 7.24985 16.2801C4.89963 16.2801 2.71639 15.6325 0.879883 14.5084C1.2138 14.5451 1.53484 14.5573 1.88161 14.5573C3.82082 14.5573 5.60598 13.9342 7.03152 12.8711C5.20786 12.8345 3.67958 11.6981 3.15302 10.1341C3.40989 10.1707 3.66673 10.1952 3.93645 10.1952C4.30888 10.1952 4.68134 10.1463 5.02807 10.0608C3.12736 9.69421 1.70178 8.10579 1.70178 6.18744V6.13859C2.25399 6.43184 2.89618 6.61512 3.57679 6.63952C2.45948 5.93082 1.72748 4.72118 1.72748 3.35267C1.72748 2.61956 1.93292 1.94753 2.29254 1.36102C4.33453 3.7559 7.40395 5.31987 10.8458 5.49096C10.7816 5.19771 10.743 4.89227 10.743 4.5868C10.743 2.41184 12.5924 0.640137 14.8912 0.640137C16.0856 0.640137 17.1643 1.11667 17.9221 1.88645C18.8596 1.71539 19.7585 1.38547 20.5548 0.933389C20.2466 1.84982 19.5916 2.6196 18.7312 3.10831C19.5659 3.02282 20.375 2.80284 21.1199 2.4974C20.5549 3.27937 19.8485 3.97581 19.0394 4.5379Z" fill="#EFEFEF"/>
</svg>
